<?xml version="1.0" encoding="UTF-8"?> <svg xmlns="http://www.w3.org/2000/svg" xmlns:xlink="http://www.w3.org/1999/xlink" fill="none" height="52" viewBox="0 0 52 52" width="52"><clipPath id="a"><path d="m0 20h48.4486v32h-48.4486z"></path></clipPath><circle cx="35" cy="23" fill="#ffc800" r="13"></circle><g clip-path="url(#a)"><path d="m40.2782 32.1694c-1.1341-.332-2.2891-.5868-3.4571-.7626-.4765-.0825-.9676-.168-1.4535-.2634-.4637-5.4213-3.1683-8.8-8.2637-10.3282-1.0308-.2961-2.0862-.4963-3.1533-.5979-6.0365-.648-11.4352 2.3577-13.7482 7.6553-.49397 1.1317-.71896 2.3619-.9364 3.5526-.09031.495-.17635.9646-.27926 1.4179-.462.2243-.94009.4359-1.40346.6412-1.09455.4846-2.22669.986-3.2069 1.681-2.53871 1.801-3.998749 4.4995-4.219676 7.8035-.265692 3.9756 2.593736 7.3237 7.115536 8.3317 1.96275.437 4.03986.4624 6.04856.4866l.4106.0051c3.0951.0402 6.2286.081 9.3882.081 5.2713 0 10.6155-.1134 15.9633-.5314 1.4722-.1282 2.8999-.574 4.1857-1.3071 1.2861-.7331 2.4004-1.7362 3.2672-2.9412 1.5322-2.1392 2.079-4.7109 1.5002-7.0555-.958-3.887-3.5686-6.5342-7.7578-7.8686zm4.3916 10.9877c-.7153 2.2591-2.2771 3.736-4.6426 4.3902-.8848.2347-1.79.383-2.703.4425-6.0169.4412-25.2069.8685-29.11244.2988-1.91585-.2794-3.42435-1.1567-4.24759-2.4699-.81664-1.302-.94552-2.9734-.37305-4.833.96529-3.1345 3.10381-5.1512 6.35646-5.9956 1.00362-.2607 1.30752-.7905 1.51702-1.677.0698-.2952.1357-.5939.2008-.8936.244-1.1144.4963-2.2665.9928-3.2585 1.8005-3.5949 5.2906-5.6907 9.3215-5.6907.4905.0003.9804.0307 1.4675.0908 6.182.761 7.6742 3.8063 9.2439 8.3651.0411.1448.0642.2942.0688.4447l.0078.0975c.1037 1.2229.4738 1.5723 1.7215 1.6256 3.7003.1585 6.3644 1.1743 8.3837 3.1971 1.8668 1.8699 2.4544 3.7887 1.7969 5.866z" fill="#3a032d"></path></g></svg> 