<?xml version="1.0" encoding="UTF-8"?> <svg xmlns="http://www.w3.org/2000/svg" width="52" height="52" viewBox="0 0 52 52" fill="none"><circle cx="30.3212" cy="21.5849" r="21.5849" fill="#FFC800"></circle><g clip-path="url(#clip0_249_22587)"><path d="M36.2423 37.0799C36.0907 36.682 35.9013 36.3031 35.636 35.962C34.8023 34.901 33.9876 34.2189 33.0592 33.7641C32.8886 33.6884 32.6992 33.5747 32.5476 33.4799L32.3771 33.3852C31.1265 32.6463 29.7623 32.362 28.1897 32.4947C28.5307 32.2294 28.8718 31.9831 29.1939 31.7368C29.535 31.4715 29.8381 31.1684 30.1034 30.8463C30.2739 30.6378 30.3497 30.3915 30.3118 30.1641C30.2739 29.9557 30.1602 29.7663 29.9897 29.6336C29.7813 29.482 29.4213 29.3873 28.9097 29.7663C28.6444 29.9747 28.3602 30.1641 28.095 30.3726C27.5265 30.7894 26.9392 31.2441 26.3518 31.661C25.9729 31.9263 25.575 32.1726 25.196 32.3999C25.0444 32.4947 24.8929 32.5894 24.7413 32.6841C24.3434 32.9305 24.135 33.2147 24.116 33.5178C24.0971 33.821 24.2676 34.1431 24.6465 34.4463C24.9497 34.7115 25.2339 35.0147 25.4802 35.3368C25.7644 35.6589 26.0486 35.981 26.3329 36.3031C26.7686 36.8147 27.2423 37.3263 27.6971 37.8378C27.8865 38.0273 28.095 38.1978 28.3413 38.3115C28.5118 38.4252 28.7392 38.4631 28.9476 38.4441C29.156 38.4252 29.3455 38.3305 29.4971 38.1789C29.6486 38.0273 29.7244 37.8189 29.7434 37.6105C29.7623 37.402 29.6865 37.1936 29.5539 37.0231C29.3076 36.682 29.0423 36.3599 28.796 36.0568C28.7013 35.962 28.6255 35.8484 28.5307 35.7536C28.3034 35.4694 28.0571 35.1852 27.7918 34.882L27.5455 34.5789C27.6402 34.5789 27.7539 34.5599 27.8486 34.5599C28.2655 34.522 28.7202 34.5031 29.1371 34.5031C29.8192 34.5031 30.5202 34.6736 31.1265 34.9957C31.695 35.2799 32.2634 35.621 32.7939 35.962C33.6276 36.5305 34.1581 37.0989 34.4423 37.7431C34.6697 38.2736 34.8213 38.861 34.9539 39.4294L35.0107 39.6568C35.2571 40.642 35.1434 41.6841 35.0297 42.6884C34.8592 44.2231 34.3855 45.341 33.5518 46.2315C33.4002 46.3831 33.2676 46.5536 33.135 46.7052C33.0023 46.8757 32.8507 47.0463 32.6992 47.1978C31.8844 48.0315 31.0129 48.5431 30.0465 48.7515C28.8907 48.9978 27.356 49.2252 25.8592 48.7705C25.4044 48.6189 24.9497 48.4484 24.5139 48.2399C24.2297 48.1263 23.9265 47.9936 23.6234 47.8799C22.4486 47.4441 21.596 46.5915 21.0276 45.2841C20.2318 43.4841 19.9855 41.5515 20.2886 39.5241C20.3265 39.2778 20.3834 39.0126 20.4402 38.7473L20.4592 38.6905C20.4781 38.5957 20.4971 38.501 20.516 38.4063C20.6107 37.9894 20.4213 37.7999 20.2507 37.7241C20.1181 37.6484 19.9476 37.6294 19.815 37.6863C19.6634 37.7241 19.5497 37.8189 19.4739 37.9515C19.3602 38.122 19.2655 38.3305 19.1897 38.5199C18.9055 39.3915 18.7539 40.301 18.7539 41.2294C18.7539 42.9347 19.0381 44.3936 19.6065 45.701C20.3644 47.4441 21.4634 48.5999 22.9413 49.2252C23.1497 49.3199 23.3771 49.4336 23.5665 49.5284C24.9686 50.2863 26.5413 50.6841 28.1329 50.6841C28.4171 50.6841 28.7013 50.6652 28.9855 50.6463C30.3118 50.5326 31.3918 50.3241 32.396 49.6799C34.6318 48.2399 36.015 46.4778 36.5834 44.261C36.716 43.7873 36.7918 43.2947 36.8676 42.821C36.9055 42.6126 36.9434 42.3852 36.9813 42.1768V42.1578C37.1139 40.4336 36.8676 38.6905 36.2423 37.0799Z" fill="#3A032D"></path><path d="M18.6589 48.9786C18.64 48.9028 18.0716 47.6144 17.9579 47.5007C17.8821 47.4249 17.7684 47.4249 17.56 47.4628C15.76 47.6902 13.9411 47.7849 12.16 47.7281C9.62105 47.6523 6.66526 47.4249 3.86105 46.4586C3.67158 46.3828 3.46316 46.307 3.29263 46.2313C3.17895 46.1744 3.08421 46.1176 2.97053 46.0418L2.85684 40.1491C4.22105 40.7176 5.71789 41.0965 7.68842 41.3618C10.2274 41.7218 12.8042 41.9113 15.3621 41.9113C15.6463 41.9113 15.9305 41.8923 16.2147 41.8923H16.2526C16.2526 41.8923 16.6126 41.8923 16.8589 41.8923C17.0863 41.8923 17.1811 41.8355 17.2568 41.7597C17.3326 41.7218 17.4653 41.5702 17.4274 40.3955C17.4274 40.1681 17.3137 39.827 17.0295 39.827C16.9347 39.827 16.5937 39.846 16.3284 39.8649C15.1537 39.9218 13.9979 39.9218 12.88 39.8649C10.8337 39.7702 8.14316 39.5807 5.50947 39.0313C4.82737 38.8797 4.16421 38.6902 3.50105 38.4628C3.29263 38.387 3.06526 38.3302 2.83789 38.2544L2.74316 31.547C8.82526 33.7639 14.5095 34.4081 20.1179 33.4986L20.1747 33.4797L20.2505 33.4039C20.3263 33.3281 20.3832 33.2713 20.4589 33.1955L20.5158 33.1576V33.0818C20.5726 32.627 20.5537 32.1723 20.5537 31.7365L20.5347 31.3007L20.3074 31.3386C19.1137 31.566 17.9958 31.7365 16.8968 31.8123C13.3726 32.0965 9.65895 31.6797 5.58526 30.5618C4.97895 30.3913 4.35368 30.2018 3.74737 29.9934H3.72842C3.53895 29.9365 3.36842 29.8797 3.17895 29.8228C2.83789 29.7091 2.74316 29.5576 2.74316 29.1976C2.76211 27.8713 2.76211 26.5828 2.76211 25.2376V24.0818C3.10316 24.2144 3.40632 24.347 3.72842 24.4797C5.52842 25.1807 7.53684 25.6544 10.0379 25.9576C12.8042 26.2797 15.5705 26.2797 17.92 26.2228C19.9663 26.1849 22.3537 25.9955 24.6463 25.0481C25.1768 24.8397 25.6505 24.5934 26.1621 24.3281L26.2 24.3091C26.2 24.3281 26.2 24.366 26.2 24.3849C26.1811 24.9155 26.1621 25.427 26.1432 25.9576C26.1053 26.8481 26.0674 27.8523 26.0484 28.8376C26.0484 28.8376 26.0484 28.9513 26.0484 29.0649V29.1407C26.0484 29.3681 26.0674 29.7091 26.3326 29.7281C26.4274 29.7281 26.6168 29.7091 26.9011 29.6713H26.92L27.0147 29.6523C27.2989 29.5955 27.5453 29.5386 27.7916 29.5007L27.9432 29.4818L28 26.9049C28.0189 25.8628 28.0568 24.7828 28.0568 23.7218C28.0568 23.3997 28.0379 23.0586 28.0379 22.7365H27.8484L28.0379 22.7176C28.0189 22.4334 28.0189 22.1491 28.0189 21.8649C28.0189 20.8228 27.2421 20.3491 26.9768 20.1976C26.2 19.7618 25.3663 19.4397 24.4947 19.2502C21.5958 18.5681 18.6211 18.3786 16.1011 18.2649C14.2821 18.1702 12.4442 18.1891 10.6442 18.3407C8.74947 18.5302 6.87368 18.8523 5.05474 19.326C3.88 19.6481 2.91368 20.1218 2.11789 20.747C1.45474 21.2776 1.15158 21.9028 1.20842 22.6607C1.20842 22.8313 1.20842 23.0207 1.18947 23.2102C1.18947 23.3049 1.18947 23.3997 1.18947 23.4944C1.17053 24.0628 1.15158 24.6123 1.11368 25.1807V25.2944C1.05684 26.5449 1 27.8334 1 29.1028C1 31.6986 1.03789 34.3513 1.05684 36.9091L1.07579 38.4628C1.11368 40.8881 1.15158 43.086 1.20842 45.1891C1.22737 45.5113 1.26526 45.8334 1.32211 46.1555C1.36 46.3449 1.37895 46.5534 1.39789 46.7428C1.41684 46.9323 1.49263 47.1218 1.60632 47.2734C1.72 47.4249 1.89053 47.5386 2.06105 47.5955C3.29263 48.1449 4.63789 48.6944 6.05895 48.9976C8.33263 49.4713 10.6632 49.6986 12.9937 49.6986C13.0884 49.6986 13.1642 49.6986 13.2589 49.6986C14.0358 49.6986 14.8695 49.6797 15.6842 49.6418C16.5179 49.5849 17.3705 49.5091 18.2989 49.4144C18.3368 49.4144 18.3747 49.4144 18.4316 49.3955C18.6211 49.3007 18.6968 49.206 18.6589 49.0165V48.9786ZM2.85684 22.3576C2.87579 22.3197 3.04632 22.187 3.12211 22.1491C3.16 22.1302 3.19789 22.0923 3.23579 22.0734C4.14526 21.4291 5.22526 21.107 6.15368 20.8797C8.56 20.3113 11.0232 20.027 13.4863 20.027C13.5432 20.027 13.6 20.027 13.6568 20.027C14.1305 20.027 14.6042 20.027 15.0968 20.046C18.3179 20.1597 20.7621 20.4249 23.0358 20.8797C23.7747 21.0313 24.5326 21.2397 25.2337 21.5049C25.48 21.5997 25.7263 21.7323 25.9537 21.8649L25.9726 21.8839C25.6505 22.4144 25.1958 22.8123 24.5326 23.1344C23.2632 23.7407 21.8611 24.1197 20.2126 24.2902C18.6968 24.4418 16.8968 24.5934 15.1347 24.5365L14.68 24.5176C12.1411 24.4228 9.52632 24.3281 7.04421 23.7218C6.09684 23.4944 5.14947 23.1723 4.24 22.8502L4.20211 22.8313C3.88 22.7176 3.57684 22.6228 3.25474 22.5091L3.21684 22.4902C2.97053 22.4523 2.85684 22.3955 2.85684 22.3576Z" fill="#3A032D"></path></g><defs><clipPath id="clip0_249_22587"><rect width="36" height="32.4189" fill="white" transform="translate(1 18.2461)"></rect></clipPath></defs></svg> 