<?xml version="1.0" encoding="UTF-8"?> <svg xmlns="http://www.w3.org/2000/svg" width="52" height="52" viewBox="0 0 52 52" fill="none"><g clip-path="url(#clip0_249_22724)"><circle cx="25.5849" cy="25.5849" r="21.5849" fill="#FFC800"></circle><path d="M22.3432 48.8192L22.2866 48.8129L22.3432 48.81C22.3399 48.7486 22.3368 48.6873 22.335 48.6258C22.3186 48.0267 22.3019 47.4274 22.2846 46.8282C22.2411 45.2927 22.1961 43.705 22.1619 42.1328C22.1472 41.4615 22.1506 40.7778 22.1549 40.1168C22.1566 39.8105 22.1583 39.5041 22.1583 39.1978V38.9903L22.114 38.9896L22.1495 37.6237C22.1832 36.3289 22.2164 35.0341 22.2493 33.7391L22.2638 33.1646C22.2865 32.2709 22.3103 31.3468 22.3205 30.4369C22.3235 30.1635 22.311 29.8884 22.2988 29.6154C22.2882 29.3774 22.2773 29.1314 22.2778 28.8921C22.2793 28.1876 21.8273 27.8409 21.4871 27.6414C20.8508 27.2818 20.1621 27.0224 19.4458 26.8724C17.0289 26.3122 14.5558 26.1408 12.4551 26.0471C10.9405 25.9684 9.42241 25.9883 7.91045 26.1066C6.34369 26.2293 4.79186 26.4968 3.27512 26.9057C2.30635 27.1716 1.52355 27.5514 0.882311 28.0666C0.367777 28.4799 0.136805 28.959 0.176018 29.5313C0.183186 29.6889 0.180233 29.8468 0.167178 30.004C0.162644 30.0797 0.15811 30.1553 0.155844 30.2309C0.138957 30.7148 0.117992 31.1987 0.0970256 31.6852C0.0516922 32.7445 0.00386563 33.8398 0.000805631 34.9239C-0.0054277 37.1162 0.0256224 39.3425 0.0555424 41.4956L0.0729982 42.7626C0.0999716 44.797 0.136465 46.6355 0.184405 48.3831C0.197415 48.6469 0.228234 48.9095 0.276658 49.1692C0.303631 49.3344 0.331511 49.5052 0.348397 49.6724C0.361817 49.8037 0.412656 49.9285 0.494955 50.0321C0.577254 50.1358 0.687603 50.214 0.813065 50.2576C1.84372 50.7125 2.95858 51.1674 4.12671 51.414C6.09732 51.8182 8.10546 52.0144 10.1176 51.9992C10.7712 51.9992 11.4536 51.9812 12.1453 51.9455C14.058 51.8327 15.9605 51.5872 17.8388 51.2107C19.0363 50.9805 20.4423 50.6522 21.7919 49.9634C22.1747 49.7682 22.3533 49.4924 22.3537 49.0955C22.3528 49.0019 22.3479 48.9092 22.3432 48.8192ZM19.6101 30.0832C18.5357 30.5963 17.3348 30.916 15.9392 31.0615C14.6585 31.1949 13.1499 31.3239 11.6654 31.2692L11.2818 31.2552C9.15372 31.1787 6.95313 31.0997 4.85215 30.5784C4.05712 30.3811 3.26141 30.1127 2.4921 29.8531L2.46444 29.8437C2.19664 29.7537 1.92883 29.6636 1.65978 29.5756L1.62861 29.5655C1.36114 29.479 1.24747 29.4228 1.23591 29.2991C1.22537 29.1878 1.31683 29.1139 1.52253 28.9768C1.55302 28.9564 1.58294 28.9365 1.61139 28.9165C2.40041 28.3562 3.31762 28.0885 4.11084 27.9006C6.18049 27.4157 8.3008 27.1764 10.4272 27.1879C10.8239 27.1879 11.2296 27.1955 11.6325 27.2104C14.3326 27.3093 16.3913 27.5238 18.3079 27.9056C18.9412 28.039 19.5649 28.2142 20.1748 28.43C20.3938 28.5146 20.6039 28.6204 20.802 28.746L20.8207 28.7572C20.866 28.7839 20.913 28.811 20.9604 28.8381C20.6754 29.3892 20.2568 29.7746 19.6101 30.0832ZM1.08756 31.5432H1.14422C1.14354 31.1968 1.14298 30.849 1.14252 30.4997L1.29088 30.5604C1.59439 30.6849 1.8844 30.8036 2.1759 30.9185C3.67054 31.5072 5.33495 31.8965 7.41428 32.1438C9.72526 32.4185 12.0326 32.4118 13.9848 32.3688C15.6766 32.3317 17.6613 32.1872 19.5548 31.3977C19.9843 31.2186 20.3874 31.0143 20.8139 30.798L20.8737 30.7678C20.945 30.7318 21.0166 30.6954 21.0885 30.6593C21.0892 30.7695 21.0885 30.8784 21.085 30.9883C21.07 31.425 21.0538 31.8621 21.0373 32.305C21.0056 33.1576 20.9727 34.0393 20.9509 34.9073C20.9429 35.2311 20.8673 35.3841 20.6622 35.4914C20.533 35.559 20.4101 35.6364 20.2891 35.7124C20.1063 35.8386 19.9086 35.9421 19.7005 36.0207C17.381 36.7709 15.2407 37.2165 13.1574 37.3825C10.1869 37.6198 7.07076 37.2737 3.63144 36.3231C3.11486 36.1804 2.59557 36.0143 2.09351 35.8537L2.07299 35.8472C1.91886 35.7979 1.76461 35.7488 1.61025 35.7C1.26356 35.5906 1.1304 35.4003 1.13505 35.0208C1.14899 33.8681 1.14638 32.7411 1.14422 31.5481L1.08756 31.5429V31.5432ZM20.8237 39.3579L20.8224 39.5354C20.8163 40.3691 20.8106 41.2028 20.8054 42.0366V42.0746C20.8039 42.3364 20.8029 42.5256 20.7559 42.5863C20.7015 42.6566 20.4561 42.7185 20.2398 42.7732C19.0479 43.0743 17.6972 43.4156 16.3606 43.6678C14.1954 44.0659 11.9902 44.2065 9.79156 44.0865C8.07343 44.0046 5.81583 43.8509 3.59075 43.3838C3.01677 43.2529 2.44983 43.0933 1.89211 42.9054C1.67564 42.8366 1.45306 42.7661 1.22775 42.698L1.13063 36.7381C8.07705 39.3153 14.525 39.4419 20.8358 37.1257C20.8377 37.1656 20.839 37.2044 20.8387 37.2426C20.8344 37.9478 20.8295 38.6529 20.8239 39.3579H20.8237ZM5.4756 45.0255C7.5949 45.3258 9.73295 45.4768 11.8737 45.4772C14.0905 45.4557 16.2981 45.1891 18.4554 44.6822C19.0366 44.5472 19.6071 44.4063 20.2199 44.2556L20.8141 44.1093L20.9462 48.794C20.2893 49.1471 19.5851 49.4052 18.8547 49.5605C17.0554 49.9143 15.6721 50.1609 14.369 50.3602C12.6516 50.6206 10.9136 50.7223 9.17729 50.6641C7.0447 50.5948 4.54717 50.4127 2.19097 49.59C2.01943 49.5324 1.85134 49.4651 1.68755 49.3884C1.58776 49.3373 1.49077 49.2809 1.39696 49.2196C1.37781 49.2074 1.35831 49.1951 1.33859 49.1828L1.24384 43.9218C2.42489 44.4514 3.73208 44.7921 5.47583 45.0255H5.4756Z" fill="#3A032D"></path><path d="M51.3432 22.8192L51.2866 22.8129L51.3432 22.81C51.3399 22.7486 51.3368 22.6873 51.335 22.6258C51.3186 22.0267 51.3019 21.4274 51.2846 20.8282C51.2411 19.2927 51.1961 17.705 51.1619 16.1328C51.1472 15.4615 51.1506 14.7778 51.1549 14.1168C51.1566 13.8105 51.1583 13.5041 51.1583 13.1978V12.9903L51.114 12.9896L51.1495 11.6237C51.1832 10.3289 51.2164 9.03406 51.2493 7.73915L51.2638 7.16462C51.2865 6.27092 51.3103 5.34684 51.3205 4.43693C51.3235 4.16345 51.311 3.88839 51.2988 3.61536C51.2882 3.37745 51.2773 3.13143 51.2778 2.89205C51.2793 2.18765 50.8273 1.8409 50.4871 1.64136C49.8508 1.2818 49.1621 1.02239 48.4458 0.872357C46.0289 0.312233 43.5558 0.140844 41.4551 0.0470955C39.9405 -0.0315579 38.4224 -0.0116781 36.9105 0.106623C35.3437 0.229304 33.7919 0.49681 32.2751 0.905672C31.3063 1.17161 30.5236 1.55145 29.8823 2.06656C29.3678 2.47993 29.1368 2.95902 29.176 3.5313C29.1832 3.68889 29.1802 3.84676 29.1672 4.00397C29.1626 4.07971 29.1581 4.15534 29.1558 4.23086C29.139 4.71479 29.118 5.19872 29.097 5.68524C29.0517 6.74449 29.0039 7.83977 29.0008 8.92389C28.9946 11.1162 29.0256 13.3425 29.0555 15.4956L29.073 16.7626C29.1 18.797 29.1365 20.6355 29.1844 22.3831C29.1974 22.6469 29.2282 22.9095 29.2767 23.1692C29.3036 23.3344 29.3315 23.5052 29.3484 23.6724C29.3618 23.8037 29.4127 23.9285 29.495 24.0321C29.5773 24.1358 29.6876 24.214 29.8131 24.2576C30.8437 24.7125 31.9586 25.1674 33.1267 25.414C35.0973 25.8182 37.1055 26.0144 39.1176 25.9992C39.7712 25.9992 40.4536 25.9812 41.1453 25.9455C43.058 25.8327 44.9605 25.5872 46.8388 25.2107C48.0363 24.9805 49.4423 24.6522 50.7919 23.9634C51.1747 23.7682 51.3533 23.4924 51.3537 23.0955C51.3528 23.0019 51.3479 22.9092 51.3432 22.8192ZM48.6101 4.0832C47.5357 4.59628 46.3348 4.91602 44.9392 5.06153C43.6585 5.1949 42.1499 5.32387 40.6654 5.26917L40.2818 5.25523C38.1537 5.1787 35.9531 5.09969 33.8522 4.57839C33.0571 4.3811 32.2614 4.1127 31.4921 3.85306L31.4644 3.84372C31.1966 3.75368 30.9288 3.66364 30.6598 3.57563L30.6286 3.56551C30.3611 3.47896 30.2475 3.42281 30.2359 3.29913C30.2254 3.18782 30.3168 3.11388 30.5225 2.9768C30.553 2.95643 30.5829 2.93651 30.6114 2.91648C31.4004 2.35624 32.3176 2.0885 33.1108 1.90056C35.1805 1.41566 37.3008 1.17644 39.4272 1.18794C39.8239 1.18794 40.2296 1.19547 40.6325 1.21044C43.3326 1.30925 45.3913 1.52376 47.3079 1.90561C47.9412 2.03901 48.5649 2.21418 49.1748 2.42996C49.3938 2.51457 49.6039 2.62042 49.802 2.74597L49.8207 2.75723C49.866 2.7839 49.913 2.81102 49.9604 2.83814C49.6754 3.38915 49.2568 3.77461 48.6101 4.0832ZM30.0876 5.54322H30.1442C30.1435 5.19681 30.143 4.84898 30.1425 4.49973L30.2909 4.56038C30.5944 4.68485 30.8844 4.80359 31.1759 4.91849C32.6705 5.5072 34.335 5.8965 36.4143 6.14375C38.7253 6.41847 41.0326 6.41183 42.9848 6.36884C44.6766 6.3317 46.6613 6.18719 48.5548 5.3977C48.9843 5.21865 49.3874 5.01427 49.8139 4.79797L49.8737 4.7678C49.945 4.73178 50.0166 4.69543 50.0885 4.65931C50.0892 4.76949 50.0885 4.87843 50.085 4.98827C50.07 5.42505 50.0538 5.86206 50.0373 6.30502C50.0056 7.15765 49.9727 8.0393 49.9509 8.90734C49.9429 9.23112 49.8673 9.38408 49.6622 9.49144C49.533 9.55897 49.4101 9.6364 49.2891 9.71236C49.1063 9.83858 48.9086 9.94213 48.7005 10.0207C46.381 10.7709 44.2407 11.2165 42.1574 11.3825C39.1869 11.6198 36.0708 11.2737 32.6314 10.3231C32.1149 10.1804 31.5956 10.0143 31.0935 9.85371L31.073 9.84719C30.9189 9.7979 30.7646 9.74883 30.6103 9.69999C30.2636 9.59059 30.1304 9.40028 30.135 9.02079C30.149 7.86813 30.1464 6.74112 30.1442 5.54805L30.0876 5.54287V5.54322ZM49.8237 13.3579L49.8224 13.5354C49.8163 14.3691 49.8106 15.2028 49.8054 16.0366V16.0746C49.8039 16.3364 49.8029 16.5256 49.7559 16.5863C49.7015 16.6566 49.4561 16.7185 49.2398 16.7732C48.0479 17.0743 46.6972 17.4156 45.3606 17.6678C43.1954 18.0659 40.9902 18.2065 38.7916 18.0865C37.0734 18.0046 34.8158 17.8509 32.5908 17.3838C32.0168 17.2529 31.4498 17.0933 30.8921 16.9054C30.6756 16.8366 30.4531 16.7661 30.2278 16.698L30.1306 10.7381C37.0771 13.3153 43.525 13.4419 49.8358 11.1257C49.8377 11.1656 49.839 11.2044 49.8387 11.2426C49.8344 11.9478 49.8295 12.6529 49.8239 13.3579H49.8237ZM34.4756 19.0255C36.5949 19.3258 38.733 19.4768 40.8737 19.4772C43.0905 19.4557 45.2981 19.1891 47.4554 18.6822C48.0366 18.5472 48.6071 18.4063 49.2199 18.2556L49.8141 18.1093L49.9462 22.794C49.2893 23.1471 48.5851 23.4052 47.8547 23.5605C46.0554 23.9143 44.6721 24.1609 43.369 24.3602C41.6516 24.6206 39.9136 24.7223 38.1773 24.6641C36.0447 24.5948 33.5472 24.4127 31.191 23.59C31.0194 23.5324 30.8513 23.4651 30.6875 23.3884C30.5878 23.3373 30.4908 23.2809 30.397 23.2196C30.3778 23.2074 30.3583 23.1951 30.3386 23.1828L30.2438 17.9218C31.4249 18.4514 32.7321 18.7921 34.4758 19.0255H34.4756Z" fill="#3A032D"></path></g><defs><clipPath id="clip0_249_22724"><rect width="52" height="52" fill="white"></rect></clipPath></defs></svg> 