<?xml version="1.0" encoding="UTF-8"?> <svg xmlns="http://www.w3.org/2000/svg" width="52" height="52" viewBox="0 0 52 52" fill="none"><g clip-path="url(#clip0_249_22713)"><circle cx="16.5" cy="20.5" r="12.5" fill="#FFC800"></circle><g clip-path="url(#clip1_249_22713)"><path d="M33.8007 42.8716C33.5017 42.8808 33.1951 42.8782 32.8989 42.876C32.7835 42.8751 32.6678 42.8742 32.5519 42.8739C32.5445 42.7646 32.5372 42.663 32.5303 42.5667C32.5139 42.339 32.4996 42.1423 32.4939 41.9459C32.4795 41.4425 32.4636 40.9391 32.4463 40.4358C32.4023 39.0808 32.3556 37.6798 32.3534 36.3023C32.3517 35.3272 32.3136 35.2014 31.3289 35.1574C31.2024 35.1518 31.0753 35.1495 30.9487 35.1467C30.4283 35.1476 29.9077 35.1476 29.3873 35.1467C26.0449 35.1458 22.5863 35.1446 19.1913 35.4454C19.0439 35.4557 18.8959 35.4576 18.7483 35.4511C18.6982 35.4499 18.6477 35.4488 18.5965 35.448L18.2051 28.7565C18.2659 28.7522 18.3254 28.7477 18.384 28.7433C18.5581 28.73 18.7217 28.7177 18.886 28.7154C19.121 28.712 19.354 28.7127 19.5878 28.7133C19.927 28.7143 20.277 28.7154 20.6218 28.7035C21.5427 28.6719 21.8769 28.3647 21.8994 27.53C21.961 25.1814 21.9672 23.2431 21.9193 21.4321C21.9063 20.943 21.7863 20.6009 21.5522 20.3863C21.2941 20.1495 20.8905 20.056 20.284 20.0927C18.5561 20.1954 16.8498 20.3129 15.2501 20.4255L15.0941 20.4363C14.6189 20.4591 14.1457 20.5112 13.677 20.5924C13.255 20.6746 13.0252 20.9684 13.0297 21.4195C13.0384 22.2633 13.0388 23.1215 13.0392 23.9513C13.0392 25.0464 13.0404 26.1789 13.0601 27.2925C13.0793 28.3788 13.2774 28.5056 14.2798 28.6678C14.4565 28.6944 14.6346 28.711 14.8132 28.7177C15.3377 28.7418 15.8623 28.7635 16.4002 28.7858L16.9394 28.8083V35.5301C16.8905 35.5373 16.8419 35.5448 16.7926 35.5527C16.6479 35.5787 16.5018 35.5964 16.3551 35.6058C12.8933 35.7611 9.43152 35.9134 5.96982 36.0625C5.68259 36.075 5.39521 36.0819 5.10782 36.0889C4.86817 36.0948 4.62837 36.1005 4.38827 36.1096C3.8511 36.1297 3.54844 36.229 3.37707 36.4418C3.21054 36.6483 3.17648 36.9644 3.26635 37.4664C3.28705 37.5823 3.3104 37.6982 3.33404 37.8137C3.37472 38.0138 3.41672 38.2206 3.44271 38.4248C3.64152 39.9402 3.69329 41.4712 3.59734 42.9967C3.36855 42.9967 3.14314 42.9962 2.92111 42.9955C2.37131 42.9943 1.8381 42.993 1.30475 42.9983C0.484159 43.0065 0.143473 43.3098 0.0480215 44.1171C-0.190526 46.1945 -0.199298 48.2919 0.0218781 50.3713C0.0831138 50.9658 0.346125 51.2439 0.929847 51.3312C1.23358 51.3705 1.5404 51.3804 1.84603 51.3605C2.82756 51.3153 3.80905 51.2681 4.79049 51.2188C5.84133 51.1668 6.89212 51.1164 7.94288 51.0674C8.52572 51.0408 8.93587 50.8842 9.19667 50.5886C9.45747 50.293 9.56041 49.8693 9.51415 49.2926C9.4676 48.7116 9.39844 47.948 9.27655 47.1926C9.07478 45.9412 8.8714 44.8259 8.65495 43.7829C8.5125 43.0954 8.20456 42.8403 7.5527 42.875C7.01671 42.9032 6.47278 42.8967 5.94618 42.8904C5.74265 42.888 5.54015 42.8855 5.33955 42.8851L4.70722 37.4291L17.1826 37.0661V42.5266C17.0738 42.5338 16.9711 42.5413 16.873 42.5476C16.6303 42.5644 16.4152 42.5792 16.1997 42.5883C15.8604 42.603 15.5209 42.6154 15.1814 42.6281C14.5774 42.6504 13.9528 42.6734 13.3387 42.7082C13.0366 42.7252 12.8018 42.848 12.7103 43.0364C12.677 43.1103 12.6649 43.1919 12.6752 43.2722C12.6856 43.3526 12.7181 43.4285 12.769 43.4915C13.0019 43.8243 12.9949 44.1632 12.9874 44.5222C12.9858 44.5956 12.9842 44.6709 12.9848 44.7455C12.9886 45.2593 12.987 45.773 12.9848 46.2868C12.982 47.19 12.979 48.1238 13.0071 49.0422C13.0333 49.4385 13.0995 49.8313 13.2049 50.2144C13.2407 50.3639 13.2766 50.5133 13.3077 50.6627C13.4607 51.4012 14.0785 51.5596 14.5296 51.6145C14.6994 51.6315 14.8702 51.6374 15.0408 51.6321C15.0996 51.6321 15.1574 51.6312 15.2163 51.6321L15.4494 51.6336C17.4315 51.6471 19.414 51.6594 21.3967 51.6706C21.6021 51.6753 21.8077 51.6619 22.011 51.6303C22.4028 51.5624 22.6806 51.4014 22.8366 51.1515C22.9954 50.8974 23.0181 50.5686 22.9035 50.1742C22.8471 49.9436 22.8211 49.7068 22.8263 49.4696C22.8156 48.8709 22.8107 48.272 22.806 47.6729C22.7959 46.4367 22.7856 45.1584 22.7213 43.9031C22.6605 42.7183 22.2039 42.5287 21.1302 42.5369C20.6225 42.54 20.1152 42.5394 19.5715 42.5385H18.852L18.5254 36.9051L31.1543 36.5811L30.8753 42.8478H30.3956C30.0262 42.8469 29.6881 42.8461 29.3502 42.8496C29.1221 42.8521 28.8936 42.8516 28.6664 42.8519C28.0711 42.8509 27.4604 42.8519 26.8593 42.8974C26.0785 42.9575 25.8386 43.2389 25.8721 44.0557C25.8995 44.7263 25.9264 45.237 25.9593 45.7117C25.9844 46.0728 26.0089 46.434 26.0327 46.7954C26.1033 47.8687 26.1765 48.9786 26.2838 50.0673C26.3935 51.1806 26.8771 51.634 28.008 51.6845L29.2615 51.7406C30.8007 51.8097 32.3401 51.8768 33.8797 51.942C33.917 51.9434 33.9541 51.9443 33.9913 51.9443C34.1863 51.9451 34.3807 51.9229 34.5705 51.8781C35.0499 51.7607 35.3112 51.5112 35.3469 51.1338C35.4229 50.3264 35.4748 49.5225 35.5003 48.7445C35.5187 48.1886 35.5162 47.6234 35.5137 47.077C35.5126 46.8289 35.5116 46.581 35.5124 46.333C35.5131 46.1297 35.5178 45.9264 35.5223 45.7228C35.5325 45.2791 35.5429 44.8204 35.5106 44.3703C35.4332 43.2992 34.9053 42.8387 33.8007 42.8716ZM14.1057 43.9158H21.0757V50.168L14.4898 50.3752L14.1057 43.9158ZM1.19593 44.1661H7.05518C7.12435 44.6652 7.2104 45.174 7.29366 45.667C7.50028 46.8901 7.71379 48.1542 7.72261 49.4982L1.44925 49.8764C1.1416 48.231 1.06538 46.5149 1.19593 44.1661ZM20.525 21.8964C20.4838 23.2848 20.4391 24.6731 20.3929 26.0946L20.3589 27.1515L20.3149 27.1546C18.369 27.2912 16.3569 27.4335 14.3491 27.4131L14.0748 21.4775H20.4854C20.4904 21.5204 20.4956 21.561 20.5001 21.5998C20.5162 21.6978 20.5246 21.797 20.525 21.8964ZM33.8323 44.3235V50.2022H27.7593L27.0633 44.006C29.3243 43.9523 31.5862 44.0584 33.8323 44.3235Z" fill="#3A032D"></path></g></g><defs><clipPath id="clip0_249_22713"><rect width="52" height="52" fill="white"></rect></clipPath><clipPath id="clip1_249_22713"><rect width="35.831" height="32" fill="white" transform="translate(-0.222656 20)"></rect></clipPath></defs></svg> 