<?xml version="1.0" encoding="UTF-8"?> <svg xmlns="http://www.w3.org/2000/svg" width="52" height="52" viewBox="0 0 52 52" fill="none"><g clip-path="url(#clip0_249_22624)"><circle cx="16" cy="14" r="14" fill="#FFC800"></circle><g clip-path="url(#clip1_249_22624)"><path d="M21.9047 28.826C21.3698 27.9186 20.7589 27.446 19.9368 27.2995C19.0923 27.1494 18.4033 27.4778 17.6496 28.0344C17.6251 27.68 17.6027 27.3338 17.5804 26.9932C17.5247 26.132 17.472 25.3187 17.3905 24.5016C17.3577 24.1702 17.3258 23.8385 17.2947 23.5067C17.157 22.0596 17.0147 20.5633 16.7523 19.1125C16.613 18.3429 16.2581 17.4962 15.6694 16.5239C15.0318 15.473 13.9577 15.2445 12.7974 15.9121C11.7422 16.5188 11.4925 17.5635 11.393 18.4056C11.3161 19.0538 11.3039 19.7182 11.2921 20.3609L11.2861 20.6727C11.2752 21.1725 11.264 21.6721 11.2524 22.1717C11.2125 23.9039 11.1712 25.6949 11.1719 27.4569C11.1719 28.7657 11.2139 30.0955 11.2541 31.3817C11.2718 31.9277 11.2883 32.4738 11.3024 33.0198C11.258 32.9845 11.2142 32.9492 11.1699 32.9139C11.094 32.852 11.0179 32.7904 10.939 32.7324C9.15135 31.4169 7.23497 30.9474 5.24385 31.3382C4.80698 31.4122 4.39631 31.5966 4.05078 31.874C3.70526 32.1514 3.43634 32.5125 3.26968 32.9231C3.10651 33.3587 3.05573 33.8281 3.12198 34.2885C3.18824 34.7487 3.36946 35.1848 3.64881 35.5566C3.93573 35.9259 4.26207 36.2628 4.62216 36.5614L4.73564 36.6629C6.0502 37.8039 7.14416 39.1767 7.96312 40.7127C9.08124 42.8688 10.3407 45.1465 11.8137 47.6764C12.1971 48.3355 12.8115 48.8755 13.3035 49.2722C14.2316 50.0208 15.3422 50.6337 16.7986 51.2007C18.0874 51.7082 19.4603 51.9687 20.8455 51.9684C22.4165 51.9495 23.9722 51.6579 25.4435 51.1068C26.5289 50.6997 27.5339 50.1039 28.412 49.3469C30.0013 48.0257 31.1089 46.2214 31.7978 43.8313C32.7183 40.6566 33.109 37.3518 32.954 34.0499C32.8873 33.1089 32.6791 32.1834 32.3364 31.3044C32.1202 30.6602 31.6849 30.1121 31.1064 29.7556C30.5279 29.3992 29.8427 29.2568 29.1702 29.3533C28.702 29.4274 28.2456 29.5621 27.8122 29.7535C27.6262 29.8257 27.4347 29.9002 27.2378 29.9679C26.86 29.0016 26.05 28.3063 24.9472 28.0049C23.7121 27.6673 22.6887 27.9437 21.9047 28.826ZM14.3891 47.519C14.0752 47.3025 13.8021 47.0321 13.5824 46.7205C13.1076 46.0146 12.5567 45.1705 12.0691 44.2661C11.3927 43.0114 10.7199 41.6824 10.0697 40.316C8.92259 37.9042 7.4965 36.0609 5.71079 34.6808C5.69027 34.6656 5.67103 34.649 5.65316 34.6308C5.59651 34.571 5.53704 34.5119 5.47669 34.4528C5.13592 34.115 4.81397 33.7958 4.98656 33.2641C5.17362 32.6888 5.71612 32.5956 6.24253 32.5956C6.26883 32.5956 6.29553 32.5956 6.32129 32.5956C8.24482 32.6263 9.68089 33.3394 10.5881 34.7152C10.7595 35.0125 10.8858 35.3337 10.9631 35.6681C10.9901 35.7622 11.016 35.8555 11.0453 35.9475C11.1646 36.3327 11.3595 36.7335 11.8979 36.7839C12.339 36.8259 12.716 36.4952 12.8628 35.9434C12.9243 35.7022 12.9524 35.4535 12.9465 35.2047C12.9058 32.9625 12.8596 30.77 12.8095 28.6882C12.798 28.2137 12.7774 27.7317 12.7566 27.2656C12.7194 26.3978 12.6807 25.5009 12.7009 24.6204C12.7453 22.673 12.8614 20.6937 12.9737 18.7792L12.9913 18.4769C13.0295 17.8284 13.1907 17.138 14.0923 16.9151C14.6769 17.36 15.0294 17.9942 15.1688 18.8524C15.4035 20.2956 15.5605 21.6128 15.6482 22.8793C15.7698 24.6297 15.862 26.4119 15.9514 28.1355C15.9963 29.0032 16.0425 29.8707 16.09 30.7384C16.112 31.1323 16.2153 31.6656 16.8516 31.7482C17.4562 31.8271 17.6842 31.3633 17.8668 30.9909C17.9415 30.8385 18.0136 30.6835 18.0858 30.5286C18.2965 30.0302 18.5593 29.5557 18.8697 29.1126C19.1345 28.7653 19.4755 28.5964 19.8085 28.6497C20.1541 28.7049 20.4387 28.9871 20.5896 29.4235C20.7033 29.8153 20.7654 30.2203 20.7746 30.6281C20.7829 30.7531 20.7913 30.8777 20.8023 31.001C20.8109 31.1422 20.8081 31.2839 20.794 31.4245C20.7823 31.5525 20.7781 31.6809 20.7813 31.8092C20.78 31.9843 20.8462 32.153 20.9659 32.2806C21.0857 32.4082 21.25 32.4848 21.4247 32.4946C21.8306 32.5485 22.1202 32.3826 22.2386 32.0272C22.2739 31.9204 22.3002 31.8106 22.3254 31.7044C22.352 31.5796 22.3868 31.4568 22.4295 31.3366C22.4765 31.2131 22.5218 31.0884 22.5672 30.9636C22.7034 30.5528 22.8735 30.1539 23.0756 29.7712C23.3957 29.2065 23.7765 29.0632 24.4344 29.2608C25.232 29.5001 25.7089 29.9985 25.8513 30.7421C25.9231 31.1734 25.9642 31.6091 25.9748 32.0462C25.9794 32.1468 25.9842 32.2472 25.9896 32.3475C26.0138 32.7874 26.1054 33.2152 26.6085 33.3648C27.1979 33.5413 27.4849 33.14 27.7077 32.7516L27.7741 32.6357C27.9652 32.2806 28.183 31.9404 28.4255 31.6181C28.8301 31.1087 29.3133 30.8544 29.75 30.9214C30.1616 30.9841 30.5057 31.322 30.7192 31.8731C31.1029 32.8109 31.3314 33.8049 31.396 34.8161C31.5093 37.5357 31.012 40.1822 30.5105 42.4125C30.1752 43.8461 29.5637 45.2009 28.7105 46.4007C27.7879 47.7253 26.3736 48.6973 24.5069 49.2901C21.0045 50.4041 17.6002 49.8076 14.3891 47.519Z" fill="#3A032D"></path><path d="M8.02916 15.3691C8.26546 15.4443 8.50216 15.5193 8.73704 15.5985L8.82527 15.6282L8.86793 15.4887C8.89087 15.4905 8.914 15.4928 8.93694 15.4951C9.05364 15.5183 9.17454 15.508 9.28567 15.4655L9.33573 15.4404C9.57061 15.3232 9.86306 15.1773 9.91812 14.9618C9.96259 14.6566 9.89109 14.3457 9.71779 14.0906C9.55108 13.8886 9.32336 13.7462 9.06878 13.6847C8.26037 13.4412 7.5961 13.2652 6.9781 13.1307C6.43263 13.0122 5.9878 13.208 5.81786 13.6425C5.6661 14.0307 5.806 14.548 6.36735 14.785C6.90859 15.0135 7.47822 15.1942 8.02916 15.3691Z" fill="#3A032D"></path><path d="M19.3777 16.4089C19.547 16.4062 19.7122 16.3568 19.8552 16.2662C20.4907 15.862 21.0996 15.4175 21.6783 14.9356C21.802 14.8132 21.8909 14.6603 21.9361 14.4923C21.9495 14.4515 21.9649 14.4115 21.9827 14.3725L21.9926 14.3527V14.3307C22.0026 14.166 21.9679 14.0018 21.8916 13.8555C21.8156 13.7091 21.701 13.5863 21.5606 13.5C21.4171 13.4333 21.2583 13.407 21.101 13.4239C20.9438 13.4408 20.7941 13.5002 20.668 13.5958C20.1032 13.987 19.5727 14.4256 19.0824 14.9068L18.9303 15.048C18.6007 15.3522 18.5382 15.7329 18.7632 16.0659C18.828 16.1706 18.9183 16.2571 19.0259 16.3172C19.1334 16.3772 19.2545 16.4088 19.3777 16.4089Z" fill="#3A032D"></path><path d="M21.0207 19.739C20.7634 19.8244 20.5169 20.2044 20.4765 20.4742C20.4186 20.86 20.6882 21.1801 21.1331 21.2524C21.3791 21.2925 21.6262 21.3181 21.8877 21.3449C22.0058 21.3571 22.1268 21.3696 22.2523 21.3839L22.2625 21.3851L22.2729 21.3839C22.3965 21.3696 22.5256 21.3597 22.6569 21.3498C22.9986 21.3367 23.3378 21.2848 23.6676 21.1952C23.8095 21.1296 23.9353 21.0341 24.0368 20.9153C24.1382 20.7965 24.2127 20.6573 24.2554 20.507C24.2773 20.4338 24.284 20.3568 24.275 20.2809C24.2658 20.205 24.2411 20.1318 24.2025 20.0658C24.1492 19.9807 24.0795 19.907 23.9974 19.8491C23.9153 19.7912 23.8225 19.7502 23.7244 19.7286C22.691 19.4745 21.8069 19.4778 21.0207 19.739Z" fill="#3A032D"></path><path d="M4.68849 20.178C4.65813 20.3851 4.98658 20.6872 5.18723 20.7384C5.50823 20.8105 5.83448 20.8567 6.1629 20.8764C6.30831 20.8895 6.45907 20.9027 6.61648 20.9205L6.62631 20.9216L6.63621 20.9205C6.74597 20.9087 6.86285 20.9002 6.98355 20.8916C7.32453 20.8779 7.66313 20.8292 7.99413 20.7462C8.12467 20.6821 8.23604 20.5847 8.31698 20.4639C8.39795 20.3431 8.44567 20.2031 8.45528 20.0579C8.44223 19.8299 8.12971 19.4498 7.8996 19.4435C6.99854 19.4193 6.09679 19.4504 5.19954 19.5367C4.97031 19.5582 4.72272 19.9461 4.68849 20.178Z" fill="#3A032D"></path><path d="M13.3675 12.3543C13.4482 12.9532 13.7434 13.2951 14.1793 13.2951H14.197C14.6699 13.2855 14.9999 12.8853 14.9996 12.3217C14.9888 11.6897 14.9128 11.0605 14.7728 10.4442C14.7292 10.2366 14.3805 10.0115 14.1728 10.0115H14.1675C14.0399 10.0295 13.9188 10.0794 13.8155 10.1565C13.7122 10.2336 13.6301 10.3354 13.5765 10.4527C13.4826 10.7562 13.4148 11.0672 13.3741 11.3823C13.3575 11.4864 13.3421 11.5849 13.3253 11.6749L13.3232 11.6862V11.6975C13.3298 11.7979 13.3342 11.8852 13.3381 11.9636C13.3453 12.1152 13.3513 12.2343 13.3675 12.3543Z" fill="#3A032D"></path></g></g><defs><clipPath id="clip0_249_22624"><rect width="52" height="52" fill="white"></rect></clipPath><clipPath id="clip1_249_22624"><rect width="30" height="42" fill="white" transform="translate(3 10)"></rect></clipPath></defs></svg> 