<?xml version="1.0" encoding="UTF-8"?> <svg xmlns="http://www.w3.org/2000/svg" xmlns:xlink="http://www.w3.org/1999/xlink" fill="none" height="52" viewBox="0 0 52 52" width="52"><clipPath id="a"><path d="m0 4h32.2013v32h-32.2013z"></path></clipPath><circle cx="26.3212" cy="29.5849" fill="#ffc800" r="21.5849"></circle><g clip-path="url(#a)" fill="#3a032d"><path d="m30.5608 16.8445c-.352.0065-.6995.0046-.9786.0029l-.1854-.0009-1.7618-3.2985c.1043-.122.2135-.2467.3251-.3745.327-.3738.6649-.7605.9778-1.1777.394-.5249.3614-1.1327-.0849-1.5857l-.0284-.0289c-1.1156-1.13323-2.2694-2.30497-3.4561-3.40328-.3371-.31204-.6346-.45068-.9322-.43788-.3144.01397-.6257.20281-.9792.59387-.2557.28277-.5029.56568-.7647.8653-.0855.09814-.1722.19721-.2598.29726-.7809-.79112-1.7592-1.26355-3.1393-1.51772 0-.07994.0015-.15908.0026-.23744.0032-.25287.0064-.4916-.0058-.73559-.0704-1.40682-.468-1.79214-1.8503-1.79254h-.0112c-.8654 0-1.744.03056-2.5934.06021-.4042.01397-.8072.02818-1.2108.03916-.6206.01698-1.0013.35905-1.0719.96313-.0462.39523-.0764.78999-.1031 1.13834-.0085.11141-.0166.21781-.0247.31733l-3.12075 1.76698c-.06402-.07837-.12933-.15923-.19556-.24165-.2155-.26684-.43831-.54297-.6795-.81072-.34482-.38296-.67792-.5765-1.01857-.59139-.33192-.01241-.66644.13935-1.02222.47111-1.01505.94654-1.98357 1.89243-2.87842 2.81141-.73255.75191-.7675 1.38451-.12452 2.25781.22919.3108.48432.6047.68926.8409.05971.0688.11564.133.16622.1924l-1.39182 3.7486c-.14432.0131-.29086.025-.43882.037-.40611.0332-.82601.0675-1.24358.1236-.760971.1022-1.057306.4367-1.057045 1.1926 0 1.459.015381 2.6734.046279 3.8219.011473.4272.131149.7433.355906.9392.232058.2025.56177.2767 1.00946.2261.25174-.0281.5027-.0609.7538-.0938l.06583-.0087c.00158.0143.00541.0283.01134.0415l1.57395 3.4342c-.20259.1557-.40554.3107-.60882.4652-.22198.1693-.44361.3388-.66489.5086-.6478.499-.76828 1.0678-.35826 1.6909.67192 1.0207 1.46197 2.1997 2.33766 3.2761.77518.9534 1.40394 1.0215 2.49148.2719.45265-.3122.90308-.6269 1.3569-.9447l.53165-.3716c1.18404.9416 2.36474 1.3714 3.67554 1.3522-.012.1112-.0238.2168-.0351.3186-.0339.3038-.0632.5663-.0816.8343-.0477.7012.0465 1.1364.3054 1.4125.2525.2686.6642.3893 1.3317.3893h.043c.9047-.0068 1.8244-.0227 2.7136-.038.3671-.0065.7341-.0127 1.1013-.0185.5119-.0081.8734-.1368 1.1063-.3936.2328-.2567.3259-.6303.2834-1.1414-.0287-.3513-.0606-.7024-.0894-1.018l-.0261-.2855 2.7333-1.1532.0566.0774c.1014.1384.2047.2792.3066.4209.051.0708.1007.1426.1503.2145.0892.1289.1815.2624.281.3892.4896.6245 1.029.7569 1.749.4302.2372-.0995.4604-.2301.6635-.3881.2331-.1941.4664-.388.7003-.5815.9533-.7904 1.939-1.6076 2.8757-2.45.4263-.3835.6221-.7046.6353-1.0412.013-.3431-.1695-.6946-.5919-1.1393-.3084-.3244-.6196-.6461-.9054-.9414l-.2868-.2971 1.8047-3.4493c.0734-.007.1534-.0145.2386-.0223.2848-.0261.6388-.0592.9883-.1006.7453-.0882 1.0106-.332 1.183-1.0867.3508-1.5361.0782-3.0353-.1981-4.1697-.1406-.578-.5435-.8729-1.1629-.866zm-3.0952 5.3373c-.3804 1.5386-.9177 2.6109-1.7422 3.4769-.3343.3511-.3222.843.0333 1.3495.3228.4599.6594.906 1.0159 1.3786.1266.168.2555.3388.3866.5143l-3.0807 2.4528c-.0858-.1024-.17-.2035-.2524-.3033-.2422-.2915-.4709-.5668-.7123-.8375-.6426-.72-.9798-.6905-1.8049-.2157-.6546.3623-1.344.6573-2.0577.8808-1.6381.5473-1.7613 1.2784-1.7695 2.4179-.0011.1445-.0109.2936-.0213.4515-.0027.04-.0053.0808-.0079.1225h-3.0377l-.0165-.3655c-.0153-.3407-.03-.668-.0466-.995-.0468-.9172-.2402-1.2492-1.2338-1.2851-1.4883-.0537-2.7402-.4901-3.82753-1.3342-.41366-.3216-.89237-.2947-1.46365.0816-.42592.2807-.84506.5705-1.28897.8776-.16278.1127-.32957.2279-.50035.3455l-1.94171-2.6092c.12011-.1008.23865-.2011.35563-.3009.33661-.286.65434-.5563.98887-.8136.55198-.4243.59774-.6735.23375-1.2704-.66019-1.0828-1.34202-2.3944-1.39404-3.9132-.01799-.532-.32958-.8113-.92563-.8305-.35056-.0114-.70399-.0089-1.07959-.0066-.1331.0009-.26987.002-.41171.0024l-.13232-2.5558c.19217-.0203.37807-.0414.55916-.062.48236-.0548.93866-.1064 1.39104-.1274.55863-.0262.88546-.3237.9715-.8857.25083-1.6369.71353-2.9054 1.45598-3.9927.12135-.1544.18804-.3448.18965-.5413.0016-.1966-.06198-.3881-.18079-.5446-.2736-.3971-.54833-.793-.82419-1.1877l-.25331-.364 2.48706-2.53614c.09804.09577.19611.19159.29424.28737.28682.28042.58274.57012.87933.85159.58197.55168.74768.47618 1.35508.06843.7679-.51579 1.5894-1.05106 2.449-1.42984.7392-.32562 1.4003-.70396 1.3689-1.74298.0036-.21947.0332-.43772.0883-.6502.0177-.08268.0355-.16758.0521-.25535h3.4644c.0008.07145.0023.14364.0036.21639.0049.25952.01.52771-.0088.79024-.0735 1.0223.2679 1.45646 1.2178 1.54828 1.0038.09717 1.8818.54414 2.8448 1.44981.5123.4814.7952.572 1.3626.12168.3781-.30041.7285-.61738 1.0992-.95345.1271-.11511.2554-.23067.3848-.34675l2.4841 2.62032c-.0586.0615-.1213.1267-.1871.1951-.2553.2659-.5448.5674-.8312.8829-.7666.8446-.7714 1.1624-.0311 1.9983.7845.8629 1.3371 1.9114 1.6061 3.047.15.6567.5265.9761 1.1849 1.0056.316.014.6319.0312.988.0501l.4125.022.1466 2.7437h-.3853c-.3434-.0007-.6532-.001-.9633.0015-.808.0068-1.159.2697-1.3407 1.0044z"></path><path d="m17.161 11.7019c-1.2789-.1185-2.5678.0637-3.7639.5321-1.1963.4684-2.2668 1.2101-3.1265 2.1661-.85966.9559-1.48475 2.0998-1.82549 3.3403-.34073 1.2407-.38772 2.5439-.1372 3.8058.65524 3.11 2.26469 5.0773 4.92049 6.0143.783.2708 1.6065.4044 2.4349.3954.6893-.0056 1.3767-.0725 2.0544-.1997 4.3804-.785 6.7922-3.8654 6.7902-8.674v-.003c-.0531-1.5042-.5536-2.9585-1.4374-4.1758-1.3918-1.8646-3.38-2.9419-5.9095-3.2015zm5.2682 9.4009c-.5204 2.6071-2.1619 4.1219-5.018 4.6306-.9246.1646-2.1375.3075-3.3183-.0498-2.0565-.6225-3.291-2.0712-3.7739-4.4286-.0756-.4153-.125-.8348-.1481-1.2561-.0149-.196-.0296-.3908-.0495-.5852-.0037-.7834.1506-1.5595.4536-2.2818.303-.7222.7484-1.3757 1.3096-1.9213 1.1954-1.1537 2.8747-1.7527 4.7172-1.6944 1.9892.0653 3.5651.782 4.6838 2.129 1.2114 1.4589 1.5856 3.2444 1.1436 5.4576z"></path></g></svg> 