<?xml version="1.0" encoding="UTF-8"?> <svg xmlns="http://www.w3.org/2000/svg" width="52" height="52" viewBox="0 0 52 52" fill="none"><circle cx="25.5849" cy="25.5849" r="21.5849" fill="#FFC800"></circle><path d="M25.128 8C25.4366 8.05907 25.7458 8.11547 26.0537 8.17773C28.7001 8.7136 30.4278 10.2893 31.2699 12.8416C31.6863 14.1039 31.8548 15.4159 31.9395 16.7381C32.0093 17.8303 32.0667 18.9232 32.1319 20.0156C32.1414 20.1732 32.1636 20.33 32.1826 20.5145C32.3797 20.5872 32.563 20.6727 32.7549 20.7227C34.1277 21.0792 34.7512 22.056 34.9569 23.3788C35.0024 23.6721 35.0392 23.9668 35.0556 24.2623C35.2638 28.0204 35.3247 31.7799 35.0955 35.5389C35.0596 36.4553 34.7761 37.3447 34.2752 38.1123C33.8786 38.7319 33.2706 39.1859 32.5647 39.3899C31.4243 39.7136 30.2435 39.8723 29.0582 39.8609C25.371 39.8629 21.6838 39.8325 17.9966 39.77C17.2231 39.746 16.4533 39.6513 15.697 39.4869C14.0999 39.1639 13.2844 38.2736 13.097 36.6551C13.0149 35.9075 12.9848 35.1552 13.0071 34.4035C13.077 31.5092 13.1586 28.6151 13.2694 25.7223C13.3175 24.4653 13.5008 23.2355 14.2174 22.1363C14.7426 21.3308 15.424 20.7888 16.3541 20.5557C16.5293 20.5119 16.7001 20.4473 16.9468 20.369C16.9804 20.0638 17.0208 19.7333 17.0525 19.4017C17.1919 17.9504 17.2623 16.4881 17.4888 15.0507C17.6481 14.0394 17.9241 13.0502 18.3113 12.1028C19.1721 10.0085 20.8599 8.84866 22.9893 8.27106C23.3786 8.16546 23.7762 8.08985 24.1698 8.00052L25.128 8ZM23.426 38.4388C23.426 38.4084 23.4272 38.378 23.4279 38.3477C24.5892 38.3477 25.7519 38.3807 26.9118 38.3395C28.411 38.2861 29.9164 38.2979 31.3978 37.9811C32.5722 37.73 33.0645 37.2712 33.1985 36.0917C33.2757 35.3216 33.312 34.5479 33.3074 33.7739C33.3132 32.9304 33.2022 32.0819 33.261 31.244C33.4118 29.0955 33.2387 26.9589 33.1257 24.8191C33.1053 24.4324 33.0943 24.0427 33.044 23.6591C32.9774 23.1483 32.75 22.7524 32.1879 22.6472C31.2057 22.4639 30.2315 22.1769 29.2412 22.1117C27.2658 21.9815 25.2827 21.9559 23.3021 21.9167C21.2449 21.8759 19.2163 22.1687 17.1933 22.5064C16.9349 22.5405 16.6873 22.6315 16.4681 22.7727C16.249 22.9139 16.0637 23.102 15.9255 23.3233C15.4381 24.0639 15.3323 24.9063 15.2879 25.7388C15.1075 29.1087 14.9727 32.4809 14.8303 35.8527C14.8159 36.1925 14.8661 36.5351 14.8817 36.8765C14.9095 37.4824 15.2269 37.8548 15.8077 37.9812C16.2918 38.1057 16.7855 38.1889 17.2835 38.23C19.3302 38.3188 21.3784 38.3723 23.426 38.4388ZM29.9873 20.0881C29.9108 18.798 29.8852 17.6131 29.7583 16.4391C29.6364 15.3108 29.5017 14.1689 29.2065 13.0781C28.7821 11.5092 27.7815 10.4096 26.1472 9.98971C25.3099 9.75621 24.426 9.74795 23.5845 9.96572C21.8019 10.4516 20.5187 11.4778 19.9401 13.3064C19.3742 15.0952 19.0708 16.9312 18.8457 18.7853C18.7953 19.2017 18.7619 19.6202 18.7137 20.1078L20.1458 19.9293C20.2123 18.9051 20.2669 17.9517 20.3357 16.9993C20.4082 15.9972 20.5509 15.0036 20.9094 14.0606C21.4769 12.5682 23.0009 11.4675 24.615 11.4947C26.2291 11.5219 27.4393 12.274 28.0628 13.8245C28.2532 14.2865 28.4187 14.7583 28.5589 15.2379C28.8974 16.4333 28.9355 17.6634 28.934 18.8966C28.934 19.253 28.9589 19.6093 28.974 19.9959L29.9873 20.0881ZM26.7849 19.8228C26.7708 18.5676 26.9014 17.2959 26.6828 16.0361C26.5761 15.41 26.4033 14.7969 26.1676 14.2072C25.8106 13.3248 24.9281 12.9723 24.0242 13.2796C23.6741 13.3855 23.3542 13.5737 23.0913 13.8285C22.8284 14.0834 22.6302 14.3975 22.513 14.7447C21.9449 16.3648 21.8609 18.0656 21.6213 19.8228H26.7849Z" fill="#3A032D"></path><path d="M22.9111 33.1658C22.881 32.6025 22.9027 32.0664 22.4762 31.5722C22.0608 31.0912 22.1742 30.3302 22.5921 29.7989C22.9891 29.2942 23.5714 29.1456 24.237 29.3781C25.3757 29.7764 25.6709 30.6572 24.9586 31.6518C24.8731 31.7669 24.814 31.8994 24.7854 32.04C24.7568 32.1805 24.7594 32.3257 24.793 32.4652C24.8806 33.0026 24.9087 33.5481 24.8767 34.0918C24.8312 34.6825 24.3976 35.0666 23.9185 35.0762C23.4158 35.0864 22.9916 34.6717 22.9168 34.0532C22.8972 33.7577 22.8953 33.4614 22.9111 33.1658Z" fill="#3A032D"></path></svg> 