<?xml version="1.0" encoding="UTF-8"?> <svg xmlns="http://www.w3.org/2000/svg" width="52" height="52" viewBox="0 0 52 52" fill="none"><circle cx="25" cy="26" r="12" fill="#FFC800"></circle><path d="M45.0676 26.5157C45.0676 26.1117 45.0556 25.6998 45.0437 25.3124C45.007 24.1117 44.9698 22.911 44.9321 21.7103C44.8786 19.9894 44.8256 18.2683 44.7731 16.5472L44.7518 15.8483C44.7072 14.3837 44.661 12.8693 44.6354 11.38C44.6425 11.1653 44.5897 10.9529 44.4829 10.7669C44.3761 10.5808 44.2196 10.4285 44.031 10.3273C43.7276 10.1693 43.3945 10.0775 43.0533 10.0577C42.3601 10.0112 41.6525 9.9959 40.9502 10.0127C37.4562 10.0959 34.0148 10.1882 30.7216 10.2853C30.0862 10.3041 29.4447 10.3742 28.8243 10.4419L28.7806 10.4468C28.3092 10.4981 28.0374 10.7831 27.9949 11.2686C27.9644 11.615 27.9319 11.9613 27.8995 12.3075C27.81 13.263 27.7175 14.2512 27.6658 15.2269C27.5532 17.3545 27.4563 19.5184 27.3626 21.6111C27.3195 22.5771 27.2759 23.5432 27.2317 24.5094C27.2264 24.5874 27.2171 24.6651 27.204 24.7421C27.2023 24.754 27.2004 24.7657 27.1986 24.7778L23.5902 24.9777C23.5854 24.9631 23.5809 24.9503 23.5766 24.9379C23.5617 24.9019 23.5509 24.8645 23.5444 24.8262C23.4794 23.4713 23.4151 22.1165 23.3516 20.7616C23.271 19.0473 23.1894 17.3332 23.1069 15.6191C23.0234 13.8965 22.9468 12.4696 22.8652 11.1284C22.8278 10.5129 22.6113 10.2564 22.0076 10.1124C21.7546 10.052 21.4956 10.0208 21.2355 10.0194C20.9285 10.0178 20.6215 10.0138 20.3144 10.01C19.4144 9.99889 18.4837 9.98769 17.5686 10.0318C16.2196 10.0969 14.8489 10.1779 13.5237 10.2559C11.6983 10.3638 9.81061 10.4752 7.95345 10.5467C6.804 10.5906 6.23992 11.1169 6.06881 12.303C6.03534 12.5075 6.01645 12.7142 6.01233 12.9214C6.01233 13.5842 6.01025 14.2469 6.00608 14.9098C5.99866 16.5691 5.99081 18.2847 6.02995 19.9723C6.06036 21.2895 6.11899 22.6271 6.17545 23.921C6.24558 25.523 6.31804 27.1796 6.33768 28.8084C6.36969 31.4434 6.3454 34.124 6.32198 36.7163C6.31228 37.7772 6.30387 38.838 6.29679 39.8987C6.29083 40.9351 6.55301 41.2292 7.57152 41.3295C7.66464 41.3389 7.75832 41.3417 7.85202 41.3442C7.91022 41.3459 7.96741 41.3475 8.02488 41.3509C8.40318 41.3733 8.78149 41.3921 9.15979 41.4108C9.98448 41.4518 10.8371 41.494 11.6702 41.5755C14.3448 41.8367 17.0683 41.8911 19.7031 41.9436C20.5096 41.9596 21.3161 41.9756 22.1221 41.9974C22.1732 41.9987 22.2272 41.9999 22.2829 41.9999C22.3867 42.0008 22.4904 41.9949 22.5933 41.9824C22.7302 41.9733 22.8638 41.9363 22.986 41.8739C23.1082 41.8113 23.2164 41.7247 23.3043 41.6189C23.3774 41.5141 23.4283 41.3953 23.454 41.27C23.4798 41.1447 23.4798 41.0153 23.4542 40.89C23.2166 39.2612 23.3058 37.5983 23.3919 35.9899C23.4197 35.4715 23.4484 34.9355 23.4658 34.4079C23.4862 33.7883 23.5147 33.158 23.5424 32.5484C23.6237 30.7501 23.7078 28.892 23.5965 27.055C23.5962 26.9553 23.6083 26.8559 23.6327 26.7593C23.6365 26.7402 23.6403 26.7208 23.6441 26.7015L27.1561 26.5456C27.1599 26.5641 27.1636 26.5813 27.167 26.5977C27.1817 26.6571 27.1915 26.7176 27.1961 26.7786C27.2177 27.4815 27.2375 28.1845 27.2552 28.8878C27.2932 30.3087 27.3325 31.7779 27.3946 33.2226C27.4784 35.1742 27.619 37.205 27.732 38.8371C27.7719 39.3927 27.8541 39.9443 27.9776 40.4872C28.145 41.2289 28.4499 41.3535 29.115 41.3645C30.6931 41.3915 32.2709 41.4212 33.8485 41.4538C34.684 41.4705 35.5196 41.487 36.3552 41.5031C36.5052 41.5059 36.6554 41.5092 36.8062 41.5126C37.2718 41.5233 37.7527 41.5342 38.2273 41.5259C39.5002 41.5029 40.7938 41.4705 42.0448 41.4391L43.3716 41.4069C43.5533 41.407 43.7349 41.3975 43.9156 41.3784C44.6845 41.2835 44.9071 41.0671 44.9984 40.3257C45.0523 39.8728 45.0783 39.4173 45.0764 38.9614C45.0793 34.8339 45.075 30.6372 45.0709 26.5788L45.0676 26.5157ZM32.506 26.3968C32.467 26.4739 32.4199 26.5462 32.3653 26.613C32.1325 26.8739 31.8907 27.1346 31.6563 27.3866C31.5042 27.5501 31.3528 27.714 31.2017 27.8783C30.7507 28.3718 30.6877 28.9084 31.0368 29.2785C31.1094 29.3589 31.1975 29.4234 31.2957 29.4682C31.394 29.5131 31.5003 29.5374 31.6083 29.5394H31.6203C31.9061 29.5394 32.2064 29.3902 32.4896 29.1071C32.7224 28.8746 32.9393 28.6229 33.1493 28.3794L33.1993 28.3209C33.4788 27.9972 33.7572 27.6723 34.0342 27.3461C34.2745 27.0645 34.5152 26.7832 34.7563 26.5025C35.0563 26.1539 35.1828 25.8611 35.1541 25.5805C35.125 25.3036 34.9486 25.0484 34.5964 24.7777C33.7208 24.1051 32.8265 23.4257 31.9618 22.7694L31.3843 22.3308C30.9439 21.9963 30.5867 21.98 30.3231 22.2834C30.0594 22.5868 30.093 23.0006 30.4091 23.3665C30.6171 23.5963 30.8408 23.8113 31.0784 24.0099C31.1312 24.0561 31.1837 24.1024 31.2361 24.1486L31.3202 24.2217C31.4591 24.3359 31.5869 24.4632 31.7018 24.6018L29.2045 24.6989C29.0684 23.3546 29.273 13.6084 29.47 12.1468L43.0006 11.8883L43.0076 11.9323C43.0298 12.0518 43.0438 12.1727 43.0493 12.2941C43.1237 16.1161 43.1951 19.9383 43.2638 23.7606C43.2842 24.9028 43.3037 26.045 43.322 27.1871C43.3491 28.8433 43.3782 30.4995 43.4093 32.1554C43.4282 33.1204 43.4551 34.1022 43.4812 35.0513C43.5039 35.8847 43.5267 36.717 43.5448 37.55C43.5554 38.0392 43.5528 38.5257 43.55 39.0406C43.549 39.2316 43.5478 39.4252 43.5475 39.6227H29.5999L29.0695 26.5405C30.2112 26.4217 31.3592 26.3737 32.5067 26.3968H32.506ZM8.17927 33.3495L8.17592 32.462C8.16937 30.5889 8.16268 28.6519 8.09706 26.7479C8.05152 25.4298 7.97948 24.0914 7.90993 22.797C7.78568 20.4869 7.65722 18.0993 7.67555 15.7469C7.68166 14.9502 7.69228 14.1532 7.70319 13.33L7.7163 12.3078C9.72958 12.3175 11.753 12.2191 13.7109 12.1242C16.2153 12.0033 18.8033 11.8781 21.3559 11.98L21.5742 24.9872C21.3802 25.0001 21.1882 25.0135 20.9979 25.0274C20.4741 25.065 19.9794 25.1005 19.478 25.1151C18.8412 25.1335 18.1927 25.1411 17.5656 25.1485C17.0179 25.1549 16.4518 25.1615 15.8945 25.1752C15.5809 25.1736 15.2692 25.2238 14.9716 25.3233C14.8652 25.3758 14.7729 25.4533 14.7027 25.5492C14.6324 25.6451 14.5863 25.7567 14.5681 25.8744C14.5444 26.0826 14.7835 26.3367 14.9499 26.4C15.2215 26.499 15.5072 26.5534 15.796 26.5608C17.2727 26.611 18.7741 26.6503 20.226 26.6882L20.7964 26.7028C20.9966 26.7081 21.1944 26.7068 21.4233 26.7055L21.6474 26.7043C21.6528 26.7774 21.6584 26.8483 21.664 26.9186C21.6829 27.1552 21.7006 27.3785 21.7006 27.5997C21.7006 28.9868 21.6996 30.3737 21.6974 31.7607C21.6948 33.7474 21.6942 35.7344 21.6957 37.7214C21.6969 38.3002 21.7213 38.872 21.7472 39.4775C21.7571 39.7097 21.7671 39.9454 21.7763 40.1854C17.1393 40.2156 12.507 39.905 8.15191 39.5835V39.4741C8.15191 39.3028 8.15191 39.1378 8.15191 38.972C8.15511 38.3872 8.15928 37.8021 8.16441 37.2165C8.17401 35.9487 8.18436 34.639 8.17927 33.3495Z" fill="#3A032D"></path></svg> 