<?xml version="1.0" encoding="UTF-8" standalone="no"?>
<svg
   xmlns:dc="http://purl.org/dc/elements/1.1/"
   xmlns:cc="http://creativecommons.org/ns#"
   xmlns:rdf="http://www.w3.org/1999/02/22-rdf-syntax-ns#"
   xmlns:svg="http://www.w3.org/2000/svg"
   xmlns="http://www.w3.org/2000/svg"
   viewBox="0 0 1018.52 988.85333"
   height="988.85333"
   width="1018.52"
   xml:space="preserve"
   id="svg2"
   version="1.1"><metadata
     id="metadata8"><rdf:RDF><cc:Work
         rdf:about=""><dc:format>image/svg+xml</dc:format><dc:type
           rdf:resource="http://purl.org/dc/dcmitype/StillImage" /></cc:Work></rdf:RDF></metadata><defs
     id="defs6" /><g
     transform="matrix(1.3333333,0,0,-1.3333333,0,988.85333)"
     id="g10"><g
       transform="scale(0.1)"
       id="g12"><path
         id="path14"
         style="fill:#e7e7e6;fill-opacity:1;fill-rule:nonzero;stroke:none"
         d="M 3382.59,0.0117188 C 1594.11,0.0117188 144.031,144.719 144.031,322.57 c 0,177.84 1450.079,322.551 3238.559,322.551 1789.2,0 3239.28,-144.711 3239.28,-322.551 C 6621.87,144.719 5171.79,0.0117188 3382.59,0.0117188" /><path
         id="path16"
         style="fill:#b65e39;fill-opacity:1;fill-rule:evenodd;stroke:none"
         d="m 5644.11,3214.8 c 352.8,255.61 763.2,587.52 930.96,781.2 120.24,138.96 270,653.76 427.68,658.08 289.44,7.2 611.28,-1374.47 271.44,-1713.59 -298.08,-297.37 -1072.8,-401.05 -1623.6,-236.17 l -6.48,510.48" /><path
         id="path18"
         style="fill:#f6d335;fill-opacity:1;fill-rule:evenodd;stroke:none"
         d="m 7166.91,6270.49 80.64,-370.81 365.76,-101.52 c 14.4,-3.6 23.76,-15.12 25.2,-28.8 2.16,-14.4 -4.32,-27.36 -16.56,-34.56 l -327.6,-192.23 16.56,-379.45 c 0.72,-14.4 -7.2,-26.64 -20.15,-32.4 -12.97,-6.47 -27.37,-4.32 -38.17,5.04 l -283.68,252.01 -355.68,-132.48 c -12.96,-5.05 -27.36,-1.45 -37.44,8.63 -9.36,10.09 -12.24,24.49 -6.48,38.16 l 152.64,347.77 -236.16,296.63 c -9.36,11.53 -10.8,25.92 -3.6,38.88 6.48,12.24 19.44,19.44 33.84,18 l 378,-37.44 209.52,316.08 c 7.92,12.25 21.6,18 35.28,15.12 14.4,-2.16 24.48,-12.96 28.08,-26.63" /><path
         id="path20"
         style="fill:#fdf1a5;fill-opacity:1;fill-rule:evenodd;stroke:none"
         d="m 7122.99,6212.17 -201.6,-304.57 -363.6,36.01 c 235.44,-115.93 466.56,-234.73 680.4,-370.09 l 314.65,184.32 -351.37,97.92 -78.48,356.41" /><path
         id="path22"
         style="fill:#88a4ad;fill-opacity:1;fill-rule:evenodd;stroke:none"
         d="m 6941.55,5431.68 c 3.6,18 72,5.05 69.12,-12.23 L 6675.15,3343.68 c -7.2,-43.92 -179.28,-11.51 -169.92,31.69 l 436.32,2056.31" /><path
         id="path24"
         style="fill:#e1f0f3;fill-opacity:1;fill-rule:evenodd;stroke:none"
         d="m 6975.39,5419.45 c 6.48,0 22.32,0 20.16,-12.25 l -360,-2041.2 c -13.68,-1.43 -30.24,0.73 -45.36,5.04 l 385.2,2048.41" /><path
         id="path26"
         style="fill:#d5764b;fill-opacity:1;fill-rule:evenodd;stroke:none"
         d="m 6531.15,4074.48 c 221.76,174.97 377.28,45.37 268.56,-172.79 -53.28,-105.84 -330.48,-247.69 -419.76,-282.25 -20.16,179.29 12.96,345.61 151.2,455.04" /><path
         id="path28"
         style="fill:#ca3127;fill-opacity:1;fill-rule:evenodd;stroke:none"
         d="m 1716.51,7299.36 c -27.36,32.41 -30.96,82.8 65.52,97.21 133.2,20.88 779.77,40.31 951.12,-25.21 172.81,-66.23 907.92,-614.88 1118.16,-1000.8 -491.04,-332.64 -897.84,-644.4 -1388.88,-977.04 -97.2,301.68 -152.64,920.88 -220.32,1391.04 -216,164.89 -339.84,295.2 -525.6,514.8" /><path
         id="path30"
         style="fill:#ca3127;fill-opacity:1;fill-rule:evenodd;stroke:none"
         d="m 2493.39,5481.36 c 432.72,295.92 851.76,610.57 1284.48,905.76 -181.44,291.6 -673.92,699.12 -961.91,877.68 -111.61,69.12 -144.01,73.45 -279.37,84.96 -118.08,10.09 -686.16,23.04 -777.6,-15.12 87.84,-117.36 300.96,-336.96 531.36,-508.32 61.2,-450.72 92.16,-929.52 203.04,-1344.96" /><path
         id="path32"
         style="fill:#ee2b22;fill-opacity:1;fill-rule:evenodd;stroke:none"
         d="m 3180.99,5967.37 c 198,141.11 396.01,282.95 596.88,419.75 -181.44,291.6 -673.92,699.12 -961.91,877.68 -111.61,69.12 -144.01,73.45 -279.37,84.96 -93.6,8.65 -473.04,18.01 -670.32,2.17 -97.19,-7.93 -38.88,-31.69 6.48,-44.65 239.76,-69.83 369.36,-105.12 582.48,-218.87 100.09,30.23 216.72,29.51 281.52,-18.72 -156.96,0 -253.44,-68.41 -317.52,-173.53 48.24,16.56 103.68,23.04 159.12,27.36 l 602.64,-956.15" /><path
         id="path34"
         style="fill:#f25645;fill-opacity:1;fill-rule:evenodd;stroke:none"
         d="m 2881.47,7166.88 c -35.28,-9.36 -64.8,-18.72 -93.6,-28.07 -36.71,23.76 -74.16,47.51 -110.87,71.28 -8.65,5.75 -23.05,1.44 -22.33,-7.21 2.88,-36.72 5.04,-73.43 7.2,-110.16 -43.2,-15.84 -83.52,-33.12 -120.96,-53.27 -10.08,-5.05 -5.76,-18.72 8.64,-21.61 48.96,-10.07 82.8,-23.04 132.48,-32.4 11.52,-38.87 23.04,-77.76 34.56,-116.63 2.88,-9.36 19.44,-11.53 25.92,-2.88 27.36,33.12 54,66.95 81.37,100.8 49.67,-2.89 100.07,-5.77 150.47,-8.65 11.52,-0.71 18.72,10.08 10.8,17.28 -33.12,29.53 -65.52,58.32 -97.92,87.85 2.89,26.64 5.76,53.99 10.81,91.44 1.43,12.96 -2.89,16.55 -16.57,12.23 z m -299.52,-418.32 c -22.32,-21.6 -41.04,-40.31 -59.04,-59.04 -33.83,9.36 -67.68,18.73 -102.24,28.09 -7.92,2.16 -16.56,-7.21 -13.67,-15.13 13.67,-33.12 26.63,-66.95 39.59,-100.07 -26.64,-30.25 -50.4,-60.48 -70.56,-91.45 -5.76,-9.35 0.72,-20.87 12.24,-18 38.88,7.93 67.69,7.93 105.84,15.85 20.88,-32.4 41.04,-64.81 61.21,-96.49 5.03,-8.64 17.99,-4.31 20.15,5.76 9.36,41.05 18,82.08 27.37,123.12 36.71,14.41 74.16,28.8 111.59,43.93 8.64,2.87 10.08,15.83 2.16,19.43 -32.4,16.57 -65.52,32.4 -97.92,48.96 -6.47,25.93 -12.96,51.84 -20.88,88.56 -2.87,12.96 -7.2,14.4 -15.84,6.48 z m -535.68,280.8 c 41.77,-38.16 86.4,-77.04 131.77,-115.2 37.43,0.73 74.87,1.45 112.31,1.45 9.36,0.71 15.12,11.51 9.36,18 -25.2,26.63 -49.68,53.27 -74.88,79.91 3.6,26.64 6.48,53.28 12.24,90.73 2.16,12.95 -1.44,15.84 -12.24,11.52 -28.8,-12.25 -53.28,-23.05 -76.32,-34.57 -28.8,20.88 -56.88,41.76 -85.68,62.64 -7.2,5.04 -18,-0.72 -18,-9.36 0.72,-35.28 0.72,-69.83 1.44,-105.12 z m 1338.48,-204.47 c -72.72,66.95 -149.04,131.04 -223.92,191.52 -26.64,-2.16 -53.28,-5.04 -79.2,-10.09 -10.08,-2.16 -13.68,-15.12 -3.59,-21.59 32.39,-22.32 51.83,-43.2 84.23,-65.53 -9.36,-37.43 -18.72,-74.16 -28.08,-111.59 -2.16,-8.65 9.36,-15.13 18.01,-10.09 35.99,21.61 71.99,43.21 107.99,65.52 36,-17.27 72.72,-33.84 108.72,-51.11 8.64,-3.61 18.72,3.6 16.56,12.23 z m -1160.64,534.96 c -12.24,-10.09 -23.76,-20.89 -34.56,-30.97 -8.64,-8.64 -0.72,-20.88 13.69,-19.43 49.67,4.31 86.39,0.71 136.07,5.03 22.32,-33.84 43.93,-68.4 65.52,-102.24 5.76,-8.63 21.6,-6.47 25.92,3.6 16.56,40.32 33.84,79.93 50.41,120.24 l 62.63,12.97 -7.2,0.71 c -48.96,4.33 -174.96,9.37 -312.48,10.09" /><path
         id="path36"
         style="fill:#f6d335;fill-opacity:1;fill-rule:evenodd;stroke:none"
         d="m 3471.16,6839.29 562.31,-543.6 C 3478.35,5979.6 3018.27,5683.68 2463.15,5367.6 l -151.92,812.16 c -52.56,280.81 848.16,961.2 1159.93,659.53" /><path
         id="path38"
         style="fill:#fdf1a5;fill-opacity:1;fill-rule:evenodd;stroke:none"
         d="m 3070.12,5724.01 c -129.61,-77.77 -260.65,-155.53 -396.01,-234.73 l -246.24,883.44 c 55.44,72.01 109.44,129.6 196.56,199.44 l 445.69,-848.15" /><path
         id="path40"
         style="fill:#ca3127;fill-opacity:1;fill-rule:evenodd;stroke:none"
         d="m 1590.51,5135.04 c 498.24,830.88 1139.76,1351.44 1720.08,1604.16 1145.52,499.68 2045.52,10.09 1010.17,-790.56 -624.25,-483.12 -1819.45,-929.52 -2730.25,-813.6" /><path
         id="path42"
         style="fill:#ee2b22;fill-opacity:1;fill-rule:evenodd;stroke:none"
         d="m 4714.59,6553.45 c 5.04,43.19 -0.71,86.4 -20.16,126.71 -65.52,131.77 -254.16,179.29 -398.88,191.52 -258.48,21.61 -546.47,-41.75 -790.56,-130.31 -350.64,-126.72 -676.08,-325.44 -959.03,-558.73 -290.17,-239.76 -539.29,-519.12 -748.09,-822.24 421.92,543.6 993.6,1041.13 1677.6,1282.32 607.68,213.12 1131.84,141.84 1239.12,-89.27" /><path
         id="path44"
         style="fill:#6c2523;fill-opacity:1;fill-rule:evenodd;stroke:none"
         d="m 3378.27,5725.44 c 363.6,198.72 609.12,483.12 548.64,635.05 -61.2,151.92 -405.36,113.76 -768.96,-85.69 -363.6,-198.72 -609.12,-483.12 -548.64,-635.04 60.48,-151.92 404.64,-113.76 768.96,85.68" /><path
         id="path46"
         style="fill:#b65e39;fill-opacity:1;fill-rule:evenodd;stroke:none"
         d="m 1460.91,1113.85 c -251.28,534.23 -228.96,735.11 -217.44,1260 5.76,261.35 -1084.318,-300.25 -268.556,-1298.17 l 485.996,38.17" /><path
         id="path48"
         style="fill:#b65e39;fill-opacity:1;fill-rule:evenodd;stroke:none"
         d="M 2438.67,912.969 C -197.246,-288 -176.367,2078.64 153.391,1883.52 809.313,1496.16 1338.51,1187.28 2000.91,1234.8 l 437.76,-321.831" /><path
         id="path50"
         style="fill:#dd7c56;fill-opacity:1;fill-rule:evenodd;stroke:none"
         d="M 5984.67,4498.56 C 6140.91,3834 6243.88,3103.2 6314.43,2358.73 6436.83,1069.92 5839.23,488.879 4979.55,264.25 4209.15,62.6406 2611.47,113.039 1795.71,318.961 1201.71,468.012 756.75,722.172 756.75,1015.93 c 0,658.07 961.2,650.15 1088.64,1512.71 l 293.76,1992.25 c 347.04,2357.27 3301.92,2287.43 3845.52,-22.33" /><path
         id="path52"
         style="fill:#dd7c56;fill-opacity:1;fill-rule:evenodd;stroke:none"
         d="m 5913.39,4482 c -133.2,564.48 -436.32,1073.52 -928.08,1395.37 -720.72,471.59 -1681.92,413.27 -2274.48,-239.77 -284.4,-313.2 -438.48,-712.8 -498.96,-1127.51 L 1918.11,2518.56 C 1786.36,1623.6 830.191,1618.56 830.191,1015.93 c 0,-146.891 151.204,-269.278 262.799,-341.278 563.76,-361.453 1589.76,-442.812 2250,-460.8 474.48,-13.692 1158.48,0.718 1617.84,120.949 1023.84,267.84 1378.8,982.799 1280.88,2017.439 -67.68,712.08 -164.16,1432.81 -328.32,2129.76" /><path
         id="path54"
         style="fill:#f18f69;fill-opacity:1;fill-rule:evenodd;stroke:none"
         d="m 5913.39,4482 c -133.2,564.48 -436.32,1073.52 -928.08,1395.37 -720.72,471.59 -1681.92,413.27 -2274.48,-239.77 -284.4,-313.2 -498.96,-893.52 -498.96,-1267.92 V 2661.84 c 0,-2264.391 4223.52,-2357.988 4029.84,-309.6 -67.68,712.08 -164.16,1432.81 -328.32,2129.76" /><path
         id="path56"
         style="fill:#f8a584;fill-opacity:1;fill-rule:evenodd;stroke:none"
         d="m 3605.07,2551.69 c 469.44,133.19 1349.28,154.79 1949.76,25.19 555.84,-119.52 364.32,-765.36 -10.08,-1021.68 -420.48,-288 -1362.24,-385.19 -1932.48,-52.56 -469.43,273.61 -512.64,906.49 -7.2,1049.05 z M 5913.39,4482 c -133.2,564.48 -436.32,1073.52 -928.08,1395.37 -206.64,134.63 -437.04,229.67 -679.68,276.47 -233.28,44.64 -473.76,44.64 -706.32,-5.03 -159.84,-33.85 -311.76,-90.73 -452.16,-167.05 -339.11,-318.96 -497.52,-905.03 -497.52,-1600.56 0,-278.63 156.24,-555.12 472.32,-723.6 624.24,-332.63 2462.4,-446.39 2794.32,279.36 66.96,146.89 46.8,334.8 -2.88,545.04" /><path
         id="path58"
         style="fill:#dd7c56;fill-opacity:1;fill-rule:evenodd;stroke:none"
         d="m 2312.67,4183.21 c 97.2,-8.65 160.57,-119.53 141.84,-248.41 -18.72,-128.87 -111.6,-226.79 -208.08,-218.15 -97.2,8.63 -160.56,119.51 -141.84,248.4 18.72,128.87 111.6,226.79 208.08,218.16 z m 168.49,1077.11 c 68.39,-6.48 113.76,-84.96 100.07,-176.4 -12.96,-91.44 -79.2,-160.56 -147.6,-154.8 -68.4,5.76 -113.04,84.96 -100.08,176.4 12.96,91.45 79.2,160.56 147.61,154.8 z m 158.39,357.12 c 318.96,387.36 812.88,610.57 1275.12,617.76 -73.44,-216 -1072.08,-687.6 -1275.12,-617.76 z m 16.56,-812.88 c 120.96,-10.8 200.16,-149.76 177.13,-311.04 -23.05,-161.28 -139.69,-282.96 -260.65,-272.16 -120.96,10.08 -200.16,149.04 -177.12,310.32 23.04,161.29 139.68,282.97 260.64,272.88" /><path
         id="path60"
         style="fill:#fef0e6;fill-opacity:1;fill-rule:evenodd;stroke:none"
         d="m 5078.91,4326.48 145.44,-120.96 c 118.08,30.96 201.61,141.12 171.36,342 l -78.48,532.8 c -66.96,457.2 -728.64,458.64 -746.64,9.36 -1.44,-33.12 -19.43,-54.72 -43.2,-58.32 l -276.48,-41.76 c -29.52,-4.31 -61.92,-9.36 -80.64,59.76 -107.28,409.69 -917.28,374.4 -829.44,-218.87 l 84.24,-573.85 c 67.68,-455.75 660.96,-426.23 756.73,-62.63 l 897.11,132.47" /><path
         id="path62"
         style="fill:#291521;fill-opacity:1;fill-rule:evenodd;stroke:none"
         d="m 5139.39,4830.49 20.16,-138.25 c 49.68,-336.95 -432,-408.23 -481.68,-71.28 l -38.88,260.64 c -48.96,331.92 424.08,404.64 480.96,79.93 l -97.92,-51.85 c -12.24,-5.76 -18.72,-18.72 -16.56,-31.67 1.44,-13.69 11.53,-23.76 24.48,-25.93 z m -1218.96,-179.29 20.16,-138.96 c 49.68,-336.95 -432,-408.23 -481.68,-71.28 l -38.15,261.36 c -48.96,331.93 424.07,404.65 480.23,79.21 l -97.92,-51.13 c -12.24,-6.48 -18.72,-18.72 -16.56,-32.39 2.16,-12.96 11.53,-23.76 25.2,-25.93 l 108.72,-20.88" /><path
         id="path64"
         style="fill:#f8a584;fill-opacity:1;fill-rule:evenodd;stroke:none"
         d="m 5546.91,4644.01 c -199.44,54.71 -451.44,-54.01 -562.32,-243.37 -110.16,-189.36 -38.16,-388.07 162,-442.8 200.16,-54.72 452.16,54 562.32,243.36 110.88,189.36 38.16,388.08 -162,442.81 z m -2348.64,-360 c 259.2,125.99 637.92,96.48 846,-66.97 208.8,-162.72 167.76,-396.72 -90.72,-522.72 -259.2,-125.99 -637.92,-95.76 -846,66.97 -208.8,163.43 -167.76,397.43 90.72,522.72" /><path
         id="path66"
         style="fill:#d5764b;fill-opacity:1;fill-rule:evenodd;stroke:none"
         d="m 4377.63,3132 c 95.04,12.25 318.24,126.01 390.96,234.73 15.12,20.87 98.64,33.83 119.52,12.23 43.2,-45.36 99.36,-151.2 140.4,-145.44 251.28,37.44 444.96,236.16 464.4,663.84 9.36,217.44 -224.64,379.44 -357.12,372.24 C 4987.47,4260.96 4115.55,4129.92 3672.03,4043.52 3533.79,4016.16 3463.24,3902.4 3472.59,3844.08 3577,3191.76 4019.08,3085.2 4377.63,3132" /><path
         id="path68"
         style="fill:#b65e39;fill-opacity:1;fill-rule:evenodd;stroke:none"
         d="m 3802.35,3813.12 c 182.88,-301.68 306,-581.76 493.92,-742.31 293.76,-249.85 892.08,-116.64 560.88,905.75 l -1054.8,-163.44" /><path
         id="path70"
         style="fill:#ffffff;fill-opacity:1;fill-rule:evenodd;stroke:none"
         d="m 3908.19,3577.68 244.8,-61.2 100.8,-629.28 c 17.28,-110.87 -387.36,9.36 -345.6,690.48 z m 1352.16,242.64 -224.64,-130.31 34.56,-638.65 c 6.48,-113.03 372.96,121.68 190.08,768.96" /><path
         id="path72"
         style="fill:#fbcca8;fill-opacity:1;fill-rule:evenodd;stroke:none"
         d="m 4410.03,3286.08 c 102.24,27.36 272.88,149.04 384.48,371.52 19.44,38.88 47.52,42.49 75.61,7.92 137.51,-168.47 184.31,-273.6 250.55,-254.16 328.32,83.52 454.32,436.32 466.56,756.01 9.36,229.67 -92.16,340.55 -243.35,331.19 -637.92,-40.32 -1288.09,-128.16 -1872.72,-287.28 -92.89,-25.2 -97.92,-116.63 -84.25,-211.67 68.4,-461.53 580.32,-830.88 1023.12,-713.53" /><path
         id="path74"
         style="fill:#fef0e6;fill-opacity:1;fill-rule:evenodd;stroke:none"
         d="M 4646.19,4434.48 C 4299.87,4392 3957.87,4332.97 3633.88,4253.04 c -25.21,-24.48 -33.85,-71.28 -25.21,-128.15 53.28,-365.05 406.08,-699.84 753.84,-677.53 159.12,10.09 375.84,318.97 380.16,362.88 19.44,212.4 -30.96,423.37 -96.48,624.24 z m 897.84,-554.39 c 25.92,93.59 39.6,192.23 43.2,287.28 9.36,229.67 -92.16,340.55 -243.35,331.19 -178.57,-11.52 -358.57,-26.63 -537.85,-46.08 52.56,-198 81.36,-402.48 89.28,-608.4 51.12,-105.12 169.92,-200.88 302.4,-202.32 120.24,-0.72 309.6,120.24 346.32,238.33" /><path
         id="path76"
         style="fill:#f9ac87;fill-opacity:1;fill-rule:evenodd;stroke:none"
         d="m 3881.55,3772.8 -90,-48.95 c -46.08,-25.21 -14.4,-82.81 30.96,-57.6 l 90,48.95 c 46.08,24.48 14.4,82.08 -30.96,57.6 z m 381.6,195.84 -74.16,-70.56 c -38.16,-35.99 7.2,-83.51 45.36,-47.52 l 74.16,70.56 c 37.45,36.01 -7.2,83.53 -45.36,47.52 z m -344.16,23.76 -102.24,2.88 c -52.56,1.45 -54,-64.79 -1.44,-65.52 l 102.24,-2.88 c 51.84,-1.43 54,64.08 1.44,65.52 z m 625.68,-210.23 -33.12,-97.2 c -17.28,-48.97 44.64,-70.57 61.92,-21.6 l 33.84,97.19 c 16.57,48.97 -45.36,70.56 -62.64,21.61 z m -464.4,-165.61 -53.27,-87.83 c -27.37,-44.65 28.79,-78.49 56.15,-33.85 l 53.28,87.12 c 27.36,44.65 -28.8,78.49 -56.16,34.56 z m 241.93,91.45 -25.2,-99.37 c -12.97,-50.4 50.39,-66.95 63.35,-15.84 l 25.2,99.37 c 12.96,50.4 -50.4,66.24 -63.35,15.84 z m 1058.39,488.87 102.25,5.76 c 52.55,2.88 56.15,-62.64 4.31,-65.52 l -102.23,-5.76 c -52.57,-2.88 -56.17,62.65 -4.33,65.52 z m -114.48,-141.12 91.44,-46.08 c 46.8,-23.75 17.28,-82.8 -29.51,-59.04 l -91.45,46.09 c -46.8,23.76 -17.28,82.08 29.52,59.03 z m -193.68,-159.11 68.4,-77.04 c 34.56,-38.89 -14.4,-82.81 -49.67,-43.21 l -67.69,76.32 c -34.56,38.88 14.4,82.08 48.96,43.93 z m 222.49,-11.53 76.31,-68.39 c 38.89,-35.29 -5.04,-84.24 -43.92,-48.97 l -76.32,67.69 c -38.88,35.27 5.04,84.23 43.93,49.67 z m -37.45,424.08 85.68,56.16 c 43.92,28.08 79.92,-26.64 36,-55.44 l -85.68,-56.16 c -43.2,-28.07 -79.92,26.64 -36,55.44 z m -1206,-152.64 -97.92,28.8 c -50.4,15.13 -69.12,-48.24 -18.72,-63.36 l 97.92,-28.79 c 50.4,-14.4 69.12,48.23 18.72,63.35" /><path
         id="path78"
         style="fill:#291521;fill-opacity:1;fill-rule:evenodd;stroke:none"
         d="m 5107.71,4456.8 c -21.6,-189.36 -158.4,-399.6 -323.28,-432 -167.04,-32.4 -433.44,113.04 -515.52,302.4 -33.12,75.61 19.44,122.4 59.04,135.37 209.52,69.11 465.12,114.47 695.52,110.87 61.92,-0.72 94.32,-27.36 84.24,-116.64" /><path
         id="path80"
         style="fill:#6c2523;fill-opacity:1;fill-rule:evenodd;stroke:none"
         d="m 5006.91,4504.32 c 40.32,-180.71 -432.72,-250.56 -472.32,-69.84 153.36,41.04 311.04,65.52 472.32,69.84" /><path
         id="path82"
         style="fill:#b65e39;fill-opacity:1;fill-rule:evenodd;stroke:none"
         d="m 2679.15,2585.52 c -235.44,167.77 -563.76,-7.92 -468.72,-377.28 118.8,-462.96 250.56,-821.51 370.8,-1082.87 201.61,-436.331 673.92,-408.968 1157.76,-66.24 581.04,411.83 684,946.8 379.44,938.88 -330.48,-8.65 -569.52,-30.96 -690.48,55.43 l -748.8,532.08" /></g></g></svg>