<?xml version="1.0" standalone="no"?>
<!DOCTYPE svg PUBLIC "-//W3C//DTD SVG 20010904//EN"
 "http://www.w3.org/TR/2001/REC-SVG-20010904/DTD/svg10.dtd">
<svg version="1.0" xmlns="http://www.w3.org/2000/svg"
 width="256.000000pt" height="256.000000pt" viewBox="0 0 256.000000 256.000000"
 preserveAspectRatio="xMidYMid meet">
<metadata>
Created by potrace 1.11, written by Peter Selinger 2001-2013
</metadata>
<g transform="translate(0.000000,256.000000) scale(0.100000,-0.100000)"
fill="#000000" stroke="none">
<path d="M1009 2506 c-2 -3 -16 -7 -29 -10 -94 -21 -120 -31 -121 -45 -1 -9
-2 -29 -4 -46 -2 -16 -4 -64 -6 -105 l-4 -75 -70 -38 c-38 -22 -77 -45 -86
-53 -14 -12 -30 -7 -129 41 l-112 56 -65 -65 -64 -65 55 -109 55 -109 -23 -34
c-13 -19 -36 -58 -51 -86 -21 -40 -33 -53 -51 -54 -13 -1 -33 -3 -44 -4 -11
-1 -50 -3 -87 -4 -38 -1 -74 -5 -81 -9 -11 -8 -52 -136 -52 -164 0 -7 45 -42
99 -78 l98 -64 -2 -103 c-1 -56 -3 -104 -6 -106 -2 -2 -47 -32 -100 -66 l-96
-63 22 -79 c13 -43 20 -79 17 -79 -3 0 -2 -4 3 -9 6 -5 63 -12 127 -16 95 -6
119 -4 122 6 2 8 22 84 45 169 32 122 41 175 42 248 4 240 94 443 268 611 240
230 596 298 911 174 36 -14 69 -29 73 -33 4 -3 -252 -266 -569 -584 -317 -317
-578 -575 -580 -573 -2 1 -6 41 -10 87 -4 47 -8 94 -9 105 -1 11 -3 42 -4 69
0 27 -3 47 -6 44 -8 -7 -213 -758 -207 -758 9 0 1642 1638 1642 1647 0 10
-137 103 -190 128 -39 18 -37 12 -44 193 -2 29 -7 56 -12 61 -14 13 -160 49
-171 42 -5 -3 -36 -48 -69 -98 l-59 -93 -105 0 -105 0 -63 100 c-56 89 -78
111 -93 96z"/>
<path d="M1442 1307 c-452 -452 -822 -825 -822 -829 0 -10 103 -79 168 -113
30 -15 55 -33 57 -39 2 -6 6 -60 9 -120 2 -59 6 -109 8 -111 4 -4 156 -45 167
-45 4 0 38 44 74 99 l66 99 102 -2 103 -1 65 -100 66 -100 84 22 c46 12 84 23
86 25 7 7 14 78 16 155 l3 82 88 51 c49 27 91 50 95 50 3 0 52 -24 109 -52
l104 -53 66 66 65 66 -54 107 -55 107 48 80 c27 44 50 84 52 88 2 5 57 11 123
15 65 4 120 8 122 9 5 6 46 177 42 180 -2 2 -47 31 -100 66 l-96 62 2 102 1
102 101 67 100 66 -21 79 c-12 43 -24 83 -28 89 -4 6 -35 12 -70 13 -35 1 -86
4 -114 7 l-51 6 -22 -84 c-13 -46 -32 -112 -43 -148 -13 -42 -23 -112 -28
-200 -8 -138 -26 -227 -63 -315 -87 -209 -265 -386 -470 -469 -126 -51 -211
-66 -352 -62 -126 4 -248 32 -337 77 l-41 21 579 579 c318 318 579 577 581
576 1 -2 5 -41 9 -87 4 -47 8 -94 9 -105 1 -11 3 -45 4 -75 l2 -55 20 65 c32
103 45 150 119 421 38 140 72 263 76 272 3 9 5 17 3 17 -2 0 -374 -370 -827
-823z"/>
</g>
</svg>
