<?xml version="1.0" encoding="UTF-8" standalone="no"?>
<svg
   width="96"
   height="96"
   viewBox="0 0 96 96"
   fill="none"
   version="1.1"
   id="svg840"
   sodipodi:docname="backblaze1.svg"
   inkscape:version="1.1.2 (b8e25be8, 2022-02-05)"
   xmlns:inkscape="http://www.inkscape.org/namespaces/inkscape"
   xmlns:sodipodi="http://sodipodi.sourceforge.net/DTD/sodipodi-0.dtd"
   xmlns="http://www.w3.org/2000/svg"
   xmlns:svg="http://www.w3.org/2000/svg">
  <defs
     id="defs844" />
  <sodipodi:namedview
     id="namedview842"
     pagecolor="#ffffff"
     bordercolor="#666666"
     borderopacity="1.0"
     inkscape:pageshadow="2"
     inkscape:pageopacity="0.0"
     inkscape:pagecheckerboard="0"
     showgrid="false"
     inkscape:zoom="7.7604167"
     inkscape:cx="47.226846"
     inkscape:cy="44.649664"
     inkscape:window-width="1920"
     inkscape:window-height="1027"
     inkscape:window-x="0"
     inkscape:window-y="25"
     inkscape:window-maximized="1"
     inkscape:current-layer="svg840" />
  <path
     d="m 44.899278,9.3002091 c -3.022454,-3.807357 -6.073832,-5.812685 -6.073832,-5.812685 2.26687,4.795223 5.550807,14.6767489 -5.057042,25.8076229 -6.568328,6.829811 -11.131269,13.921164 -8.341038,21.739177 1.278609,4.039916 4.301122,9.096622 10.37529,10.113748 2.26687,0.261814 4.795559,0 6.33571,-0.493765 8.86434,-3.02279 7.585395,-12.380954 5.551143,-18.222563 -0.261552,-0.755584 -0.755643,-2.528353 -0.755643,-3.283996 -0.876974,-3.986536 0.76106,-7.02965 2.280215,-9.851593 0.695897,-1.292626 1.367002,-2.53891 1.759424,-3.80797 0,-0.13088 0.06544,-0.319667 0.13088,-0.508731 0.06544,-0.188651 0.130759,-0.377851 0.130759,-0.508395 0.261813,-0.755643 0.261813,-1.511563 0.261813,-2.267206 C 51.282432,16.81888 48.860172,13.97343 46.472908,11.168905 45.948604,10.5528 45.425909,9.9385351 44.928624,9.3002091 Z"
     fill="#e20626"
     id="path826"
     style="stroke-width:3.17769" />
  <path
     d="m 65.359787,81.375695 c -4.039916,1.2789 -12.642439,2.03457 -17.205437,-3.54554 -3.10632,-3.822217 -3.209284,-7.171035 -3.272826,-9.246943 -0.05002,-1.63323 -0.07651,-2.478492 -1.522397,-2.145761 -12.903979,3.022458 -18.978147,-5.31858 -19.966013,-7.58545 0,0 -0.49416,-1.511227 -0.755643,-0.261552 -0.494101,2.034311 -0.494101,6.568328 0.493765,10.607908 1.279004,5.318584 5.057101,14.153678 15.926492,18.454808 9.096622,3.80742 20.489374,2.03455 28.336311,-5.81233 1.628485,-1.62845 1.344444,-1.54046 -1.280843,-0.72702 -0.23255,0.072 -0.483603,0.14989 -0.753409,0.23299 z"
     fill="#e20626"
     id="path828"
     style="stroke-width:3.17769" />
  <path
     d="m 64.633068,43.942971 c 6.829811,8.108479 9.3585,12.409878 9.852324,17.960744 v -0.02851 c 0.75592,7.091308 -2.789895,13.65929 -10.375349,15.43235 -4.03958,1.01712 -8.341038,-0.52335 -10.869391,-3.545818 -2.557613,-3.28399 -3.051714,-8.602562 -1.278945,-12.642158 0.645028,-1.401613 1.157555,-2.295133 1.571922,-3.016757 0.556416,-0.969782 0.935158,-1.629762 1.21825,-2.795918 0.829347,-4.019924 -0.241151,-7.514565 -1.250634,-10.810626 -0.830019,-2.70886 -1.618659,-5.283617 -1.277719,-7.906047 0,-0.246932 0.06534,-0.50109 0.130759,-0.75561 0.06544,-0.254178 0.13088,-0.508418 0.13088,-0.755623 1.250978,-2.880124 2.48324,-4.245188 3.711363,-5.60646 0.284061,-0.314563 0.567818,-0.628833 0.851249,-0.961518 1.773074,-2.005342 4.301451,-3.284299 4.301451,-3.284299 0,0 -1.772763,2.266853 -2.266866,6.568286 -0.26155,3.545816 2.005333,8.108438 5.550847,12.148374 z"
     fill="#e20626"
     id="path830"
     style="stroke-width:3.17769" />
</svg>
