<?xml version="1.0" encoding="UTF-8" standalone="no"?>
<svg
   width="250"
   height="250"
   viewBox="0 0 250 250"
   fill="none"
   version="1.1"
   id="svg828"
   sodipodi:docname="logo_mark_light.svg"
   inkscape:version="1.1.2 (b8e25be8, 2022-02-05)"
   xmlns:inkscape="http://www.inkscape.org/namespaces/inkscape"
   xmlns:sodipodi="http://sodipodi.sourceforge.net/DTD/sodipodi-0.dtd"
   xmlns="http://www.w3.org/2000/svg"
   xmlns:svg="http://www.w3.org/2000/svg">
  <defs
     id="defs832" />
  <sodipodi:namedview
     id="namedview830"
     pagecolor="#ffffff"
     bordercolor="#666666"
     borderopacity="1.0"
     inkscape:pageshadow="2"
     inkscape:pageopacity="0.0"
     inkscape:pagecheckerboard="0"
     showgrid="false"
     inkscape:zoom="2.98"
     inkscape:cx="24.66443"
     inkscape:cy="129.02685"
     inkscape:window-width="1312"
     inkscape:window-height="969"
     inkscape:window-x="0"
     inkscape:window-y="25"
     inkscape:window-maximized="0"
     inkscape:current-layer="svg828" />
  <path
     d="M 239.91317,170.74462 C 220.33946,180.54317 197.96648,185.98681 173.99746,185.625 102.88666,184.17281 46.957576,132.27566 48.156027,69.127764 48.55557,47.715501 55.746454,27.755095 67.731325,11.060709 29.779362,30.295516 3.8120955,66.224381 3.0130101,107.96018 1.4150162,170.74462 57.743989,223.00523 128.45526,224.45742 c 47.14002,0.72526 88.28867,-20.6875 111.45791,-53.7128 z"
     fill="#000000"
     id="path824"
     style="stroke-width:1.70599" />
  <path
     d="m 136.04444,5.9798657 c -19.17555,0 -37.153215,4.3550783 -53.133141,12.3393073 C 72.92449,33.198736 67.331595,50.255922 66.532696,67.676079 65.334068,122.47711 114.47128,167.84188 175.59528,168.93061 c 18.37579,0 39.15094,-3.9931 55.13088,-11.97601 9.5869,-14.88038 15.18014,-32.30003 15.18014,-50.80841 C 246.70434,50.981687 197.16846,5.9798657 136.04444,5.9798657 Z"
     fill="#0073ec"
     id="path826"
     style="stroke-width:1.70599" />
</svg>
