<?xml version="1.0" encoding="UTF-8"?>
<svg width="48" height="48" viewBox="0 0 48 48" fill="none" xmlns="http://www.w3.org/2000/svg">
    <path d="M46.2041 20.0816H44.8571C44.7347 20.0816 44.6122 20.0408 44.449 20.0408C43.9184 19.9184 43.4286 19.7143 42.9388 19.4694C42.8163 19.3878 42.6939 19.3469 42.6122 19.2653C42.5714 19.2245 42.4898 19.1837 42.449 19.1429C42.3673 19.102 42.3265 19.0612 42.2449 18.9796C42.0408 18.8163 41.8775 18.6531 41.6735 18.449C41.6735 18.449 41.6735 18.449 41.6327 18.4082C41.5102 18.2857 41.4286 18.1633 41.3469 18.0408C41.2245 17.8776 41.1429 17.7143 41.0204 17.551C40.898 17.3061 40.7755 17.0612 40.6531 16.7755C40.6122 16.6122 40.5306 16.449 40.4898 16.2857C40.449 16.1633 40.449 16.0408 40.4082 15.9592C40.449 15.8367 40.4082 15.6735 40.4082 15.5102C40.4082 15.4694 40.4082 15.4286 40.4082 15.3878C40.4082 14.898 40.449 14.449 40.5714 14C40.7755 13.3061 41.102 12.6531 41.4694 12.0408C41.551 11.9592 41.6327 11.8776 41.6735 11.7551L42.4082 10.9796C43.0204 10.3673 43.0612 9.34694 42.4898 8.69388C41.7551 7.79592 40.9388 6.93878 40.0408 6.16327L15.3061 30.5714C14.898 30.9388 14.2449 30.6939 14.2449 30.1224C14.2857 25.8367 14.3673 18.5306 14.4082 14.8571C14.4082 14.2449 15.2245 14.0408 15.551 14.5714L18.1224 19.0612C18.3265 19.4286 18.8163 19.4694 19.102 19.1837L30.5714 7.71429C30.5714 7.71429 30.5306 7.71428 30.5306 7.67347C30.3673 7.59184 30.2449 7.5102 30.0816 7.42857C30 7.34694 29.8776 7.30612 29.7959 7.22449C29.6735 7.14286 29.551 7.02041 29.4286 6.93878C29.3878 6.89796 29.3878 6.89796 29.3469 6.85714C28.9796 6.4898 28.7347 6.12245 28.4898 5.71429C28.1224 5.02041 27.8776 4.28571 27.7551 3.55102C27.7143 3.42857 27.7143 3.26531 27.6735 3.14286C27.6735 3.06122 27.6735 2.97959 27.6735 2.89796V1.83673C27.6735 0.897959 26.9796 0.163265 26.0816 0.0816327C25.3878 0.0408163 24.6939 0 24 0C23.3469 0 22.6531 0.0408163 22 0.0816327C21.102 0.163265 20.4082 0.897959 20.4082 1.79592C20.4082 2.32653 20.3673 2.93878 20.2449 3.55102C20.1224 4.28571 19.8776 5.02041 19.5102 5.71429C19.3061 6.12245 19.0204 6.4898 18.6531 6.81633C18.6122 6.85714 18.6122 6.85714 18.5714 6.89796C18.449 7.02041 18.3265 7.10204 18.2041 7.18367C18.1224 7.26531 18 7.30612 17.9184 7.38775C17.7551 7.46939 17.6327 7.55102 17.4694 7.63265C17.2245 7.7551 16.9388 7.87755 16.6939 7.91837C16.4898 8 16.3265 8.04082 16.1224 8.04082C15.9592 8.08163 15.8367 8.08163 15.6735 8.08163H15.6327C15.3878 8.08163 15.102 8.08163 14.8571 8.08163C14.7755 8.08163 14.6939 8.08163 14.6122 8.04082C14.5306 8.04082 14.449 8 14.4082 8C14.2857 7.95918 14.1633 7.95918 14.0408 7.91837C13.5102 7.7551 13.0204 7.55102 12.5714 7.30612C12.3265 7.18367 12.1224 7.02041 11.9184 6.85714C11.8367 6.77551 11.7551 6.73469 11.6735 6.65306L10.8571 5.79592C10.2449 5.14286 9.18367 5.06122 8.4898 5.63265C7.38775 6.57143 6.36735 7.59184 5.46939 8.69388C4.89796 9.38775 4.97959 10.3673 5.55102 10.9796L6.28571 11.7551C6.36735 11.8367 6.44898 11.9184 6.4898 12.0408C6.85714 12.6122 7.22449 13.3061 7.38775 14C7.5102 14.449 7.55102 14.898 7.55102 15.3878C7.55102 15.4286 7.55102 15.4694 7.55102 15.5102C7.55102 15.6735 7.5102 15.7959 7.5102 15.9592C7.5102 16.0816 7.46939 16.2041 7.42857 16.2857C7.38775 16.449 7.34694 16.6122 7.26531 16.7755C7.18367 17.0612 7.06122 17.3061 6.89796 17.551C6.81633 17.7143 6.69388 17.8776 6.57143 18.0408C6.4898 18.1633 6.36735 18.2857 6.28571 18.4082C6.28571 18.4082 6.28571 18.4082 6.2449 18.449C6.08163 18.6531 5.87755 18.8163 5.67347 18.9796C5.59184 19.0204 5.55102 19.102 5.46939 19.1429C5.42857 19.1837 5.34694 19.2245 5.30612 19.2653C5.18367 19.3469 5.06122 19.3878 4.97959 19.4694C4.4898 19.7143 4 19.9184 3.46939 20.0408C3.34694 20.0408 3.22449 20.0816 3.06122 20.0816H1.71429C0.857143 20.0816 0.0816327 20.7347 0 21.6327C0.0408163 22.4082 0 23.2245 0 24C0 24.6531 0.0408163 25.3061 0.0816327 25.9592C0.163265 26.8571 0.857143 27.551 1.7551 27.551L2.97959 27.5918C3.10204 27.5918 3.22449 27.5918 3.34694 27.6327C3.83673 27.7551 4.28571 27.9184 4.73469 28.1224C5.14286 28.3265 5.5102 28.6122 5.87755 28.9388C5.91837 28.9796 5.91837 28.9796 5.95918 29.0204C6.08163 29.1429 6.16327 29.2653 6.2449 29.3469C6.32653 29.4286 6.40816 29.5102 6.44898 29.6327C6.53061 29.7959 6.65306 29.9184 6.73469 30.0816C6.85714 30.3265 6.97959 30.5714 7.06122 30.8571C7.14286 31.0612 7.18367 31.2245 7.22449 31.4286C7.26531 31.5918 7.26531 31.7143 7.30612 31.8775V31.9184C7.34694 32.1633 7.34694 32.449 7.30612 32.6939C7.30612 32.7755 7.30612 32.8571 7.30612 32.9388C7.30612 33.0204 7.30612 33.102 7.26531 33.1429C7.22449 33.2653 7.22449 33.3878 7.18367 33.5102C7.06122 34.0408 6.85714 34.5306 6.61225 34.9796C6.53061 35.1429 6.44898 35.3061 6.32653 35.4286C6.2449 35.5102 6.20408 35.6327 6.08163 35.7143L5.30612 36.5714C4.69388 37.1837 4.61225 38.1633 5.14286 38.8571C6 39.9592 6.97959 40.9796 8 41.8775L33.1429 17.1837C33.551 16.8163 34.2041 17.0612 34.2041 17.6327C34.1633 21.9184 34.0816 29.2245 34.0408 32.898C34.0408 33.5102 33.2245 33.7143 32.898 33.1837L30.3265 28.6939C30.1224 28.3265 29.6327 28.2857 29.3469 28.5714L17.3878 40.5306C17.3878 40.5306 17.4286 40.5306 17.4286 40.5714C17.551 40.6531 17.6735 40.7347 17.7959 40.8571C17.7959 40.8571 17.7959 40.8571 17.8367 40.898C18.0408 41.0612 18.2041 41.2245 18.3673 41.4286C18.4082 41.5102 18.4898 41.551 18.5306 41.6327C18.5714 41.6735 18.6122 41.7551 18.6531 41.7959C18.7347 41.9184 18.7755 42 18.8571 42.1224C19.1429 42.5714 19.3469 43.0612 19.4694 43.5918C19.7143 44.4898 19.7959 45.3878 19.7959 46.1633C19.7959 47.0612 20.4898 47.7959 21.3469 47.8776C22.2041 47.9592 23.102 48.0408 24 48.0408C24.898 48.0408 25.7551 48 26.6531 47.8776C27.5102 47.7959 28.2041 47.0612 28.2041 46.1633C28.2041 45.3878 28.2857 44.449 28.5306 43.5918C28.6531 43.102 28.8571 42.6122 29.1429 42.1224C29.2245 42 29.2653 41.9184 29.3469 41.7959C29.3878 41.7551 29.4286 41.6735 29.4694 41.6327C29.5102 41.551 29.5918 41.5102 29.6327 41.4286C29.7959 41.2245 29.9592 41.0612 30.1633 40.898C30.1633 40.898 30.1633 40.898 30.2041 40.8571C30.3265 40.7755 30.449 40.6531 30.5714 40.5714C30.7347 40.449 30.898 40.3673 31.102 40.2857C31.3469 40.1633 31.5918 40.0408 31.8775 39.9592C32.0408 39.9184 32.2041 39.8775 32.3673 39.8367C32.4898 39.7959 32.6122 39.7959 32.7347 39.7959C32.898 39.7959 33.0204 39.7551 33.1837 39.7551C33.2245 39.7551 33.2653 39.7551 33.3061 39.7551C33.7959 39.7551 34.2449 39.8367 34.6939 39.9592C35.3061 40.1633 35.8775 40.449 36.4082 40.8163C36.4898 40.898 36.6122 40.9796 36.6939 41.0612L37.551 41.9592C38.2041 42.6122 39.2245 42.6531 39.9184 42.0816C41.0204 41.102 42 40.0816 42.898 38.9388C43.4286 38.2449 43.3469 37.2653 42.7347 36.6531L41.9592 35.8776C41.8776 35.7959 41.7959 35.7143 41.7143 35.5918C41.6326 35.4286 41.5102 35.3061 41.4286 35.1429C41.1837 34.6939 40.9796 34.2041 40.8571 33.6735C40.8163 33.551 40.7755 33.4286 40.7755 33.3061C40.7755 33.2245 40.7347 33.1429 40.7347 33.102C40.7347 33.0204 40.7347 32.9388 40.7347 32.8571C40.7347 32.6122 40.7347 32.3673 40.7347 32.0816V32.0408C40.7347 31.8776 40.7755 31.7551 40.8163 31.5918C40.8571 31.3878 40.898 31.2245 40.9796 31.0204C41.0612 30.7755 41.1837 30.4898 41.3061 30.2449C41.3878 30.0816 41.4694 29.9592 41.5918 29.7959C41.6735 29.7143 41.7143 29.5918 41.7959 29.5102C41.8775 29.3878 42 29.2653 42.0816 29.1837C42.1224 29.1429 42.1224 29.1429 42.1633 29.102C42.4898 28.7755 42.898 28.4898 43.3061 28.2857C43.7551 28.0408 44.2041 27.8776 44.6939 27.7959C44.8163 27.7551 44.9388 27.7551 45.0612 27.7551L46.2857 27.7143C47.1837 27.6735 47.8775 26.9796 47.9592 26.1224C48 25.4694 48.0408 24.8163 48.0408 24.1633C48.0408 23.3469 48 22.5714 47.9184 21.7959C47.7959 20.7755 47.0612 20.1224 46.2041 20.0816Z" fill="#FFFFFF"/>
</svg>




