<svg width="236" height="48" viewBox="0 0 236 48" fill="none" xmlns="http://www.w3.org/2000/svg">
<path d="M46.2041 20.0816H44.8571C44.7347 20.0816 44.6122 20.0408 44.449 20.0408C43.9184 19.9184 43.4286 19.7143 42.9388 19.4694C42.8163 19.3878 42.6939 19.3469 42.6122 19.2653C42.5714 19.2245 42.4898 19.1837 42.449 19.1429C42.3673 19.102 42.3265 19.0612 42.2449 18.9796C42.0408 18.8163 41.8775 18.6531 41.6735 18.449C41.6735 18.449 41.6735 18.449 41.6327 18.4082C41.5102 18.2857 41.4286 18.1633 41.3469 18.0408C41.2245 17.8776 41.1429 17.7143 41.0204 17.551C40.898 17.3061 40.7755 17.0612 40.6531 16.7755C40.6122 16.6122 40.5306 16.449 40.4898 16.2857C40.449 16.1633 40.449 16.0408 40.4082 15.9592C40.449 15.8367 40.4082 15.6735 40.4082 15.5102C40.4082 15.4694 40.4082 15.4286 40.4082 15.3878C40.4082 14.898 40.449 14.449 40.5714 14C40.7755 13.3061 41.102 12.6531 41.4694 12.0408C41.551 11.9592 41.6327 11.8776 41.6735 11.7551L42.4082 10.9796C43.0204 10.3673 43.0612 9.34694 42.4898 8.69388C41.7551 7.79592 40.9388 6.93878 40.0408 6.16327L15.3061 30.5714C14.898 30.9388 14.2449 30.6939 14.2449 30.1224C14.2857 25.8367 14.3673 18.5306 14.4082 14.8571C14.4082 14.2449 15.2245 14.0408 15.551 14.5714L18.1224 19.0612C18.3265 19.4286 18.8163 19.4694 19.102 19.1837L30.5714 7.71429C30.5714 7.71429 30.5306 7.71428 30.5306 7.67347C30.3673 7.59184 30.2449 7.5102 30.0816 7.42857C30 7.34694 29.8776 7.30612 29.7959 7.22449C29.6735 7.14286 29.551 7.02041 29.4286 6.93878C29.3878 6.89796 29.3878 6.89796 29.3469 6.85714C28.9796 6.4898 28.7347 6.12245 28.4898 5.71429C28.1224 5.02041 27.8776 4.28571 27.7551 3.55102C27.7143 3.42857 27.7143 3.26531 27.6735 3.14286C27.6735 3.06122 27.6735 2.97959 27.6735 2.89796V1.83673C27.6735 0.897959 26.9796 0.163265 26.0816 0.0816327C25.3878 0.0408163 24.6939 0 24 0C23.3469 0 22.6531 0.0408163 22 0.0816327C21.102 0.163265 20.4082 0.897959 20.4082 1.79592C20.4082 2.32653 20.3673 2.93878 20.2449 3.55102C20.1224 4.28571 19.8776 5.02041 19.5102 5.71429C19.3061 6.12245 19.0204 6.4898 18.6531 6.81633C18.6122 6.85714 18.6122 6.85714 18.5714 6.89796C18.449 7.02041 18.3265 7.10204 18.2041 7.18367C18.1224 7.26531 18 7.30612 17.9184 7.38775C17.7551 7.46939 17.6327 7.55102 17.4694 7.63265C17.2245 7.7551 16.9388 7.87755 16.6939 7.91837C16.4898 8 16.3265 8.04082 16.1224 8.04082C15.9592 8.08163 15.8367 8.08163 15.6735 8.08163H15.6327C15.3878 8.08163 15.102 8.08163 14.8571 8.08163C14.7755 8.08163 14.6939 8.08163 14.6122 8.04082C14.5306 8.04082 14.449 8 14.4082 8C14.2857 7.95918 14.1633 7.95918 14.0408 7.91837C13.5102 7.7551 13.0204 7.55102 12.5714 7.30612C12.3265 7.18367 12.1224 7.02041 11.9184 6.85714C11.8367 6.77551 11.7551 6.73469 11.6735 6.65306L10.8571 5.79592C10.2449 5.14286 9.18367 5.06122 8.4898 5.63265C7.38775 6.57143 6.36735 7.59184 5.46939 8.69388C4.89796 9.38775 4.97959 10.3673 5.55102 10.9796L6.28571 11.7551C6.36735 11.8367 6.44898 11.9184 6.4898 12.0408C6.85714 12.6122 7.22449 13.3061 7.38775 14C7.5102 14.449 7.55102 14.898 7.55102 15.3878C7.55102 15.4286 7.55102 15.4694 7.55102 15.5102C7.55102 15.6735 7.5102 15.7959 7.5102 15.9592C7.5102 16.0816 7.46939 16.2041 7.42857 16.2857C7.38775 16.449 7.34694 16.6122 7.26531 16.7755C7.18367 17.0612 7.06122 17.3061 6.89796 17.551C6.81633 17.7143 6.69388 17.8776 6.57143 18.0408C6.4898 18.1633 6.36735 18.2857 6.28571 18.4082C6.28571 18.4082 6.28571 18.4082 6.2449 18.449C6.08163 18.6531 5.87755 18.8163 5.67347 18.9796C5.59184 19.0204 5.55102 19.102 5.46939 19.1429C5.42857 19.1837 5.34694 19.2245 5.30612 19.2653C5.18367 19.3469 5.06122 19.3878 4.97959 19.4694C4.4898 19.7143 4 19.9184 3.46939 20.0408C3.34694 20.0408 3.22449 20.0816 3.06122 20.0816H1.71429C0.857143 20.0816 0.0816327 20.7347 0 21.6327C0.0408163 22.4082 0 23.2245 0 24C0 24.6531 0.0408163 25.3061 0.0816327 25.9592C0.163265 26.8571 0.857143 27.551 1.7551 27.551L2.97959 27.5918C3.10204 27.5918 3.22449 27.5918 3.34694 27.6327C3.83673 27.7551 4.28571 27.9184 4.73469 28.1224C5.14286 28.3265 5.5102 28.6122 5.87755 28.9388C5.91837 28.9796 5.91837 28.9796 5.95918 29.0204C6.08163 29.1429 6.16327 29.2653 6.2449 29.3469C6.32653 29.4286 6.40816 29.5102 6.44898 29.6327C6.53061 29.7959 6.65306 29.9184 6.73469 30.0816C6.85714 30.3265 6.97959 30.5714 7.06122 30.8571C7.14286 31.0612 7.18367 31.2245 7.22449 31.4286C7.26531 31.5918 7.26531 31.7143 7.30612 31.8775V31.9184C7.34694 32.1633 7.34694 32.449 7.30612 32.6939C7.30612 32.7755 7.30612 32.8571 7.30612 32.9388C7.30612 33.0204 7.30612 33.102 7.26531 33.1429C7.22449 33.2653 7.22449 33.3878 7.18367 33.5102C7.06122 34.0408 6.85714 34.5306 6.61225 34.9796C6.53061 35.1429 6.44898 35.3061 6.32653 35.4286C6.2449 35.5102 6.20408 35.6327 6.08163 35.7143L5.30612 36.5714C4.69388 37.1837 4.61225 38.1633 5.14286 38.8571C6 39.9592 6.97959 40.9796 8 41.8775L33.1429 17.1837C33.551 16.8163 34.2041 17.0612 34.2041 17.6327C34.1633 21.9184 34.0816 29.2245 34.0408 32.898C34.0408 33.5102 33.2245 33.7143 32.898 33.1837L30.3265 28.6939C30.1224 28.3265 29.6327 28.2857 29.3469 28.5714L17.3878 40.5306C17.3878 40.5306 17.4286 40.5306 17.4286 40.5714C17.551 40.6531 17.6735 40.7347 17.7959 40.8571C17.7959 40.8571 17.7959 40.8571 17.8367 40.898C18.0408 41.0612 18.2041 41.2245 18.3673 41.4286C18.4082 41.5102 18.4898 41.551 18.5306 41.6327C18.5714 41.6735 18.6122 41.7551 18.6531 41.7959C18.7347 41.9184 18.7755 42 18.8571 42.1224C19.1429 42.5714 19.3469 43.0612 19.4694 43.5918C19.7143 44.4898 19.7959 45.3878 19.7959 46.1633C19.7959 47.0612 20.4898 47.7959 21.3469 47.8776C22.2041 47.9592 23.102 48.0408 24 48.0408C24.898 48.0408 25.7551 48 26.6531 47.8776C27.5102 47.7959 28.2041 47.0612 28.2041 46.1633C28.2041 45.3878 28.2857 44.449 28.5306 43.5918C28.6531 43.102 28.8571 42.6122 29.1429 42.1224C29.2245 42 29.2653 41.9184 29.3469 41.7959C29.3878 41.7551 29.4286 41.6735 29.4694 41.6327C29.5102 41.551 29.5918 41.5102 29.6327 41.4286C29.7959 41.2245 29.9592 41.0612 30.1633 40.898C30.1633 40.898 30.1633 40.898 30.2041 40.8571C30.3265 40.7755 30.449 40.6531 30.5714 40.5714C30.7347 40.449 30.898 40.3673 31.102 40.2857C31.3469 40.1633 31.5918 40.0408 31.8775 39.9592C32.0408 39.9184 32.2041 39.8775 32.3673 39.8367C32.4898 39.7959 32.6122 39.7959 32.7347 39.7959C32.898 39.7959 33.0204 39.7551 33.1837 39.7551C33.2245 39.7551 33.2653 39.7551 33.3061 39.7551C33.7959 39.7551 34.2449 39.8367 34.6939 39.9592C35.3061 40.1633 35.8775 40.449 36.4082 40.8163C36.4898 40.898 36.6122 40.9796 36.6939 41.0612L37.551 41.9592C38.2041 42.6122 39.2245 42.6531 39.9184 42.0816C41.0204 41.102 42 40.0816 42.898 38.9388C43.4286 38.2449 43.3469 37.2653 42.7347 36.6531L41.9592 35.8776C41.8776 35.7959 41.7959 35.7143 41.7143 35.5918C41.6326 35.4286 41.5102 35.3061 41.4286 35.1429C41.1837 34.6939 40.9796 34.2041 40.8571 33.6735C40.8163 33.551 40.7755 33.4286 40.7755 33.3061C40.7755 33.2245 40.7347 33.1429 40.7347 33.102C40.7347 33.0204 40.7347 32.9388 40.7347 32.8571C40.7347 32.6122 40.7347 32.3673 40.7347 32.0816V32.0408C40.7347 31.8776 40.7755 31.7551 40.8163 31.5918C40.8571 31.3878 40.898 31.2245 40.9796 31.0204C41.0612 30.7755 41.1837 30.4898 41.3061 30.2449C41.3878 30.0816 41.4694 29.9592 41.5918 29.7959C41.6735 29.7143 41.7143 29.5918 41.7959 29.5102C41.8775 29.3878 42 29.2653 42.0816 29.1837C42.1224 29.1429 42.1224 29.1429 42.1633 29.102C42.4898 28.7755 42.898 28.4898 43.3061 28.2857C43.7551 28.0408 44.2041 27.8776 44.6939 27.7959C44.8163 27.7551 44.9388 27.7551 45.0612 27.7551L46.2857 27.7143C47.1837 27.6735 47.8775 26.9796 47.9592 26.1224C48 25.4694 48.0408 24.8163 48.0408 24.1633C48.0408 23.3469 48 22.5714 47.9184 21.7959C47.7959 20.7755 47.0612 20.1224 46.2041 20.0816Z" fill="#FE4715"/>
<path d="M55.6797 10.8096H66.0042C68.4903 10.8096 70.6888 11.3025 72.5994 12.2885C74.5331 13.2745 76.0294 14.6502 77.0883 16.4158C78.1703 18.1814 78.7113 20.1991 78.7113 22.4691C78.7113 24.8538 78.1818 26.9518 77.1229 28.7633C76.087 30.5747 74.6022 31.9849 72.6685 32.9937C70.7578 33.9797 68.5364 34.4727 66.0042 34.4727H55.6797V10.8096ZM65.6589 28.2818C67.3854 28.2818 68.6975 27.7429 69.5953 26.6652C70.5161 25.5646 70.9765 24.143 70.9765 22.4004C70.9765 20.7494 70.5276 19.4425 69.6298 18.4794C68.7551 17.4935 67.4314 17.0005 65.6589 17.0005H63.3108V28.2818H65.6589Z" fill="#0F172A"/>
<path d="M89.8531 34.7478C88.0345 34.7478 86.4116 34.4268 84.9844 33.7848C83.5802 33.1428 82.4867 32.2371 81.704 31.0677C80.9214 29.8983 80.53 28.5684 80.53 27.078V17.2412H87.6432V26.9748C87.6432 27.7314 87.8504 28.3276 88.2647 28.7633C88.7021 29.176 89.2431 29.3824 89.8877 29.3824C90.5092 29.3824 91.0156 29.176 91.407 28.7633C91.8213 28.3276 92.0285 27.7314 92.0285 26.9748V17.2412H99.0036V27.078C99.0036 28.5913 98.6123 29.9327 97.8296 31.1021C97.0699 32.2485 95.9995 33.1428 94.6183 33.7848C93.2371 34.4268 91.6487 34.7478 89.8531 34.7478Z" fill="#0F172A"/>
<path d="M101.487 17.482H108.773V20.4743C109.878 18.1584 111.754 17.0005 114.402 17.0005C115.944 17.0005 117.36 17.3903 118.649 18.1699C119.961 18.9266 120.985 19.9813 121.722 21.3341C122.482 22.687 122.861 24.2003 122.861 25.8742C122.861 27.548 122.47 29.0614 121.687 30.4142C120.928 31.767 119.892 32.8332 118.58 33.6128C117.291 34.3695 115.909 34.7478 114.436 34.7478C111.812 34.7478 109.924 33.5899 108.773 31.274V38.9439L101.487 40.3197V17.482ZM112.226 29.3136C113.17 29.3136 113.976 28.9696 114.643 28.2818C115.311 27.5939 115.645 26.7913 115.645 25.8742C115.645 24.9111 115.299 24.0971 114.609 23.4322C113.941 22.7672 113.147 22.4348 112.226 22.4348C111.282 22.4348 110.477 22.7672 109.809 23.4322C109.142 24.0742 108.808 24.8423 108.808 25.7366V25.8742C108.808 26.8372 109.142 27.6512 109.809 28.3161C110.5 28.9811 111.305 29.3136 112.226 29.3136Z" fill="#0F172A"/>
<path d="M130.711 34.7478C128.754 34.7478 127.235 34.1402 126.153 32.925C125.094 31.6868 124.564 30.0015 124.564 27.869V11.807L131.85 10.7408V27.3531C131.85 27.9951 132 28.4652 132.299 28.7633C132.621 29.0384 133.174 29.176 133.956 29.176C134.532 29.176 135.096 29.0384 135.648 28.7633L135.89 33.5784C134.348 34.358 132.621 34.7478 130.711 34.7478Z" fill="#0F172A"/>
<path d="M142.897 34.7478C140.964 34.7478 139.456 34.1287 138.374 32.8906C137.292 31.6524 136.751 29.9671 136.751 27.8346V17.2412H144.071V27.5251C144.071 28.0525 144.209 28.4652 144.486 28.7633C144.785 29.0384 145.165 29.176 145.625 29.176C146.086 29.176 146.557 29.0384 147.041 28.7633L147.421 33.5441C146.914 33.9338 146.247 34.2319 145.418 34.4383C144.612 34.6447 143.772 34.7478 142.897 34.7478ZM140.411 14.6617C139.329 14.6617 138.408 14.3292 137.649 13.6643C136.912 12.9764 136.544 12.1395 136.544 11.1535C136.544 10.1675 136.935 9.34207 137.718 8.67712C138.5 8.01216 139.398 7.67969 140.411 7.67969C141.47 7.67969 142.379 8.02363 143.139 8.71151C143.922 9.39939 144.313 10.2134 144.313 11.1535C144.313 12.1624 143.922 12.9993 143.139 13.6643C142.356 14.3292 141.447 14.6617 140.411 14.6617Z" fill="#0F172A"/>
<path d="M157.097 34.7478C155.256 34.7478 153.621 34.381 152.194 33.6472C150.79 32.8906 149.685 31.8358 148.879 30.483C148.096 29.1301 147.705 27.5939 147.705 25.8742C147.705 24.2232 148.119 22.7214 148.948 21.3685C149.777 20.0157 150.905 18.9495 152.332 18.1699C153.759 17.3903 155.348 17.0005 157.097 17.0005C159.33 17.0005 161.091 17.4591 162.38 18.3763L161.724 22.9507C160.412 22.5609 159.33 22.366 158.478 22.366C157.373 22.366 156.499 22.687 155.854 23.329C155.21 23.9481 154.887 24.7965 154.887 25.8742C154.887 26.9518 155.21 27.8117 155.854 28.4537C156.499 29.0957 157.35 29.4168 158.409 29.4168C159.33 29.4168 160.412 29.2219 161.655 28.8321L162.311 33.6472C161.529 34.037 160.734 34.3122 159.929 34.4727C159.123 34.6561 158.179 34.7478 157.097 34.7478Z" fill="#0F172A"/>
<path d="M171.421 34.7478C169.925 34.7478 168.52 34.358 167.208 33.5784C165.919 32.7759 164.883 31.6982 164.101 30.3454C163.318 28.9696 162.927 27.4448 162.927 25.771C162.927 24.1201 163.318 22.6297 164.101 21.2998C164.883 19.9469 165.931 18.8922 167.243 18.1355C168.555 17.3788 169.948 17.0005 171.421 17.0005C172.618 17.0005 173.723 17.333 174.736 17.9979C175.772 18.6629 176.554 19.6603 177.084 20.9902V17.0005H184.335V34.4727H177.084V31.274C175.933 33.5899 174.045 34.7478 171.421 34.7478ZM173.665 29.3136C174.586 29.3136 175.369 28.9926 176.014 28.3505C176.681 27.6856 177.038 26.906 177.084 26.0117V25.7366C177.038 24.8194 176.67 24.0398 175.979 23.3978C175.311 22.7558 174.54 22.4348 173.665 22.4348C172.699 22.4348 171.87 22.7787 171.179 23.4666C170.512 24.1315 170.178 24.9341 170.178 25.8742C170.178 26.8372 170.523 27.6512 171.214 28.3161C171.904 28.9811 172.722 29.3136 173.665 29.3136Z" fill="#0F172A"/>
<path d="M194.532 34.7478C192.506 34.7478 190.929 34.1746 189.801 33.0281C188.673 31.8587 188.109 30.2537 188.109 28.213V21.5061H185.899V17.2412H188.627L191.838 10.7408H195.326V17.2412H199.331V21.5061H195.326V27.3531C195.326 27.9263 195.51 28.3735 195.878 28.6945C196.247 29.0155 196.765 29.176 197.432 29.176C198.054 29.176 198.618 29.0384 199.124 28.7633L199.4 33.5784C198.825 33.9224 198.077 34.209 197.156 34.4383C196.258 34.6447 195.383 34.7478 194.532 34.7478Z" fill="#0F172A"/>
<path d="M209.856 34.7478C207.923 34.7478 206.196 34.3695 204.677 33.6128C203.18 32.8562 202.006 31.8129 201.155 30.483C200.326 29.1301 199.912 27.5824 199.912 25.8398C199.912 24.0971 200.337 22.5609 201.189 21.231C202.041 19.8781 203.215 18.8348 204.711 18.1011C206.231 17.3674 207.957 17.0005 209.891 17.0005C211.847 17.0005 213.574 17.3788 215.07 18.1355C216.59 18.8692 217.764 19.9011 218.592 21.231C219.421 22.5609 219.835 24.0971 219.835 25.8398C219.835 27.6053 219.41 29.1645 218.558 30.5174C217.729 31.8473 216.555 32.8906 215.036 33.6472C213.539 34.381 211.813 34.7478 209.856 34.7478ZM209.925 29.5887C210.869 29.5887 211.64 29.2448 212.239 28.5569C212.86 27.8461 213.171 26.9404 213.171 25.8398C213.171 24.7392 212.86 23.8449 212.239 23.157C211.64 22.4462 210.869 22.0908 209.925 22.0908C208.981 22.0908 208.199 22.4462 207.577 23.157C206.979 23.8449 206.679 24.7392 206.679 25.8398C206.679 26.9404 206.979 27.8461 207.577 28.5569C208.199 29.2448 208.981 29.5887 209.925 29.5887Z" fill="#0F172A"/>
<path d="M221.56 17.482H228.846V20.9902C229.376 19.6374 230.089 18.6399 230.987 17.9979C231.908 17.333 232.978 17.0005 234.198 17.0005L235.2 22.6067C233.013 22.6067 231.401 22.8475 230.365 23.329C229.353 23.7876 228.846 24.5213 228.846 25.5302V34.4727H221.56V17.482Z" fill="#0F172A"/>
</svg>
