<?xml version="1.0" encoding="UTF-8" standalone="no"?>
<!-- Generator: Adobe Illustrator 26.0.3, SVG Export Plug-In . SVG Version: 6.00 Build 0)  -->

<svg
   version="1.0"
   id="katman_1"
   x="0px"
   y="0px"
   viewBox="0 0 205 205"
   xml:space="preserve"
   sodipodi:docname="wasabi-cloud-storage-seeklogo.com 2.svg"
   width="205"
   height="205"
   inkscape:version="1.1.2 (b8e25be8, 2022-02-05)"
   xmlns:inkscape="http://www.inkscape.org/namespaces/inkscape"
   xmlns:sodipodi="http://sodipodi.sourceforge.net/DTD/sodipodi-0.dtd"
   xmlns:xlink="http://www.w3.org/1999/xlink"
   xmlns="http://www.w3.org/2000/svg"
   xmlns:svg="http://www.w3.org/2000/svg"><defs
   id="defs847" /><sodipodi:namedview
   id="namedview845"
   pagecolor="#ffffff"
   bordercolor="#666666"
   borderopacity="1.0"
   inkscape:pageshadow="2"
   inkscape:pageopacity="0.0"
   inkscape:pagecheckerboard="0"
   showgrid="false"
   inkscape:zoom="1.2416667"
   inkscape:cx="159.0604"
   inkscape:cy="309.66443"
   inkscape:window-width="1920"
   inkscape:window-height="1027"
   inkscape:window-x="0"
   inkscape:window-y="25"
   inkscape:window-maximized="1"
   inkscape:current-layer="g842" />
<style
   type="text/css"
   id="style824">
	.st0{clip-path:url(#SVGID_00000061464863754787056510000000905814910531898293_);fill:#00CE3E;}
	.st1{fill:#061F33;}
</style>
<g
   id="g842">
	<g
   id="g834"
   transform="translate(-84.974952,-193.999)">
		<defs
   id="defs827">
			<rect
   id="SVGID_1_"
   x="87"
   y="195.7"
   width="626"
   height="208.7" />
		</defs>
		<clipPath
   id="SVGID_00000083073068415055786330000014044562452968495528_">
			<use
   xlink:href="#SVGID_1_"
   style="overflow:visible"
   id="use829"
   x="0"
   y="0"
   width="100%"
   height="100%" />
		</clipPath>
		<path
   style="fill:#00ce3e"
   d="m 259.6,225.1 c -39.5,-39.4 -103.5,-39.3 -142.9,0.2 -39.5,39.5 -39.5,103.4 -0.2,142.9 19,19 44.7,29.6 71.5,29.6 26.8,0 52.6,-10.6 71.6,-29.6 19,-19 29.6,-44.7 29.6,-71.5 0,-26.8 -10.7,-52.6 -29.6,-71.6 z m 10.9,62.4 -43.5,-39.5 -44.6,42.1 -23.4,22 v -32.8 l 35.5,-33.7 26.5,-25.1 c 27.3,11.9 46.2,37.4 49.5,67 z m -0.8,23.9 c -1.5,8.7 -4.5,17.1 -8.7,24.8 l -24.8,-22.6 v -32.8 z m -69,-96.7 -18.7,17.7 -23.1,21.9 V 219 c 13.4,-5 27.8,-6.5 41.8,-4.3 z m -60,98 -34.4,-30.9 c 1.6,-8.9 4.7,-17.4 9,-25.2 l 25.4,22.7 z m 0,-84.2 v 26.3 L 126,241.6 c 4.4,-5 9.3,-9.4 14.7,-13.1 z m -35.2,76.9 44.6,40 68,-63.9 v 32.3 L 155.3,373 c -27.6,-11.9 -46.6,-37.7 -49.8,-67.6 z m 70.1,73.4 42.4,-40.1 v 35.4 c -9.6,3.7 -19.7,5.6 -30,5.6 -4.1,0 -8.3,-0.3 -12.4,-0.9 z m 60.6,-14.5 v -26.2 l 14.5,13.1 c -4.3,4.9 -9.2,9.4 -14.5,13.1 z m 0,0"
   clip-path="url(#SVGID_00000083073068415055786330000014044562452968495528_)"
   id="path832" />
	</g>
	
	
	
</g>
</svg>
